<?xml version="1.0" encoding="UTF-8" standalone="no"?>
<!-- Created with Inkscape (http://www.inkscape.org/) -->

<svg
   version="1.1"
   id="svg1"
   width="575.33301"
   height="586.66699"
   viewBox="0 0 575.333 586.667"
   sodipodi:docname="circle.svg"
   inkscape:version="1.3.2 (1:1.3.2+202311252150+091e20ef0f)"
   xmlns:inkscape="http://www.inkscape.org/namespaces/inkscape"
   xmlns:sodipodi="http://sodipodi.sourceforge.net/DTD/sodipodi-0.dtd"
   xmlns="http://www.w3.org/2000/svg"
   xmlns:svg="http://www.w3.org/2000/svg">
  <defs
     id="defs1" />
  <sodipodi:namedview
     id="namedview1"
     pagecolor="#ffffff"
     bordercolor="#999999"
     borderopacity="1"
     inkscape:showpageshadow="2"
     inkscape:pageopacity="0"
     inkscape:pagecheckerboard="0"
     inkscape:deskcolor="#d1d1d1"
     inkscape:zoom="1.4198863"
     inkscape:cx="294.74191"
     inkscape:cy="293.33334"
     inkscape:window-width="1920"
     inkscape:window-height="1015"
     inkscape:window-x="0"
     inkscape:window-y="0"
     inkscape:window-maximized="1"
     inkscape:current-layer="g1" />
  <g
     inkscape:groupmode="layer"
     inkscape:label="Image"
     id="g1">
    <path
       style="fill:#000000;fill-opacity:1"
       d="m 341.58422,582.11807 c 0,-0.97778 0.4,-1.37778 0.88889,-0.88889 0.48889,0.48889 0.48889,1.28889 0,1.77778 -0.48889,0.48888 -0.88889,0.0889 -0.88889,-0.88889 z m 4,-1.23881 c 0,-0.68134 3.2889,-1.92157 7.30866,-2.75607 4.01976,-0.8345 11.06976,-3.00007 15.66666,-4.81238 4.59691,-1.81231 11.05801,-3.88777 14.35801,-4.61213 3.3,-0.72436 9.6,-3.06199 14,-5.19474 4.4,-2.13274 9.5,-4.50007 11.33334,-5.26072 1.83333,-0.76065 6.33333,-3.18076 10,-5.37802 3.66666,-2.19727 8.76666,-5.18774 11.33333,-6.64549 2.56666,-1.45775 4.06666,-2.65571 3.33333,-2.66214 -0.73333,-0.006 -2.83333,0.8458 -4.66667,1.89383 -4.51906,2.58333 -6.03828,2.47177 -3.82992,-0.28124 1.20772,-1.50559 0.3512,-1.24424 -2.51909,0.76862 -2.39195,1.67743 -4.0454,3.54111 -3.67432,4.14153 0.74443,1.20451 -2.36279,2.70442 -5.60247,2.70442 -1.14091,0 -8.81436,3.28972 -17.05212,7.31049 -8.23776,4.02076 -18.20522,7.99373 -22.14991,8.82882 -3.94469,0.83508 -8.97216,2.46262 -11.17216,3.61676 -2.2,1.15413 -4.67566,2.21716 -5.50146,2.36229 -0.82581,0.14512 -3.52581,0.69795 -6,1.22851 -6.93428,1.48695 -4.22045,0.0269 7.50146,-4.03571 13.82859,-4.79279 39.04464,-17.2176 43.40629,-21.38775 1.87346,-1.79121 4.22093,-3.25674 5.2166,-3.25674 1.98524,0 15.10763,-7.99755 15.82155,-9.64257 0.24444,-0.56325 1.32985,-1.0241 2.41202,-1.0241 1.08217,0 1.59676,-0.6 1.14353,-1.33333 -0.45322,-0.73334 0.3379,-1.33334 1.75806,-1.33334 1.42015,0 3.29825,-0.86291 4.17356,-1.91759 0.8753,-1.05468 5.07537,-4.46826 9.33349,-7.58574 4.25811,-3.11747 8.46154,-6.82027 9.34096,-8.22844 1.63455,-2.61733 -4.79837,1.57216 -11.60607,7.55854 -1.65,1.45094 -3,1.9984 -3,1.21658 0,-0.78183 5.07974,-5.73413 11.2883,-11.00511 6.20857,-5.27099 13.09024,-11.63591 15.2926,-14.14426 2.20237,-2.50835 4.32263,-4.56064 4.7117,-4.56064 0.89745,0 6.04074,-5.10861 6.04074,-6 0,-1.83898 -2.71405,-0.14306 -7.43233,4.64423 -2.87889,2.92099 -5.83434,5.3309 -6.56767,5.35535 -0.73334,0.0245 -3.93127,2.73455 -7.10651,6.02244 -3.17525,3.28789 -6.32525,5.97798 -7,5.97798 -0.67476,0 -1.22683,0.9 -1.22683,2 0,1.1 -0.63541,2 -1.41202,2 -0.77661,0 -1.07287,-0.54876 -0.65836,-1.21946 0.41452,-0.67069 -7e-5,-1.533 -0.92131,-1.91623 -1.19441,-0.49688 -0.93241,-1.29463 0.9132,-2.78055 1.4235,-1.14607 2.0125,-2.08376 1.30889,-2.08376 -0.7036,0 -4.00237,2.25 -7.33059,5 -5.52455,4.56475 -14.51987,10.75874 -30.56647,21.04741 -7.22939,4.63531 -31.98365,16.61926 -34.32902,16.61926 -0.91904,0 -1.67098,0.7 -1.67098,1.55555 0,0.85556 -0.36169,1.19386 -0.80376,0.75179 -0.44207,-0.44207 -2.24207,-0.25692 -4,0.41145 -7.12163,2.70763 -2.46772,-0.28995 9.13709,-5.88522 21.35919,-10.29833 42.35704,-23.55167 42.31292,-26.70689 -0.0145,-1.03666 -0.30447,-1.02966 -1,0.0241 -0.53877,0.81628 -4.87958,3.49064 -9.64625,5.94301 -4.76667,2.45238 -11.33414,6.13451 -14.59437,8.18252 -3.26024,2.04801 -6.67477,3.72366 -7.58783,3.72366 -0.91307,0 -6.85187,2.44372 -13.19734,5.4305 -6.34548,2.98678 -11.80827,5.15947 -12.13954,4.8282 -0.71689,-0.7169 11.67021,-7.83853 18.85724,-10.84146 2.7892,-1.1654 4.74148,-2.44872 4.33839,-2.8518 -0.40309,-0.40309 -5.14521,1.28626 -10.53805,3.75411 -5.39284,2.46785 -11.90517,5.26125 -14.47183,6.20756 -2.56667,0.94631 -7.56072,2.82921 -11.09789,4.18421 -4.21491,1.61464 -7.43135,2.09343 -9.33334,1.38934 -2.62184,-0.97056 -2.45147,-1.17335 1.7641,-2.09987 7.1323,-1.56757 16.26538,-6.34636 14.36897,-7.5184 -1.07653,-0.66533 -0.45178,-1.43687 1.88197,-2.32416 1.92139,-0.73051 4.63495,-2.55346 6.03011,-4.051 2.35793,-2.53094 6.07614,-4.84265 19.71941,-12.26008 11.5168,-6.26133 38,-25.00459 38,-26.89417 0,-1.44676 -2.0178,-0.19844 -9.33333,5.77408 -14.31134,11.68399 -54.66667,27.19527 -54.66667,21.01208 0,-0.58986 0.45138,-1.07248 1.00307,-1.07248 0.85505,0 7.25351,-3.69902 27.32183,-15.79503 2.01203,-1.21273 3.68722,-2.80497 3.72264,-3.5383 0.0354,-0.73334 6.0385,-5.18405 13.34017,-9.89048 7.30168,-4.70643 13.06747,-8.76545 12.81288,-9.02004 -0.73884,-0.73885 -21.09839,11.69117 -25.91365,15.82094 -2.40885,2.06594 -5.85885,3.75624 -7.66667,3.75624 -1.80781,0 -3.28694,0.55957 -3.28694,1.24349 0,0.68391 -1.20871,1.62711 -2.68602,2.09599 -1.47732,0.46888 -2.38147,1.34531 -2.00922,1.94762 0.37225,0.60231 -0.81904,1.47054 -2.6473,1.92941 -1.82827,0.45886 -3.32412,1.40176 -3.32412,2.09532 0,0.69356 -1.35,1.91523 -3,2.71482 -2.88084,1.39605 -2.8972,1.37143 -0.41183,-0.61976 3.78026,-3.02861 1.5808,-2.54193 -6.09841,1.34942 -7.37968,3.73957 -10.70869,3.44244 -4.0766,-0.36386 2.25923,-1.29662 4.38432,-3.41535 4.72243,-4.7083 0.33812,-1.29295 1.79746,-2.35081 3.24299,-2.35081 1.44553,0 3.41156,-0.94386 4.36896,-2.09745 0.9574,-1.1536 4.03087,-3.2658 6.82993,-4.69377 2.79905,-1.42797 5.08919,-3.18412 5.08919,-3.90255 0,-0.71843 0.57126,-1.30623 1.26946,-1.30623 1.87721,0 18.98373,-12.19126 18.2026,-12.97239 -0.3675,-0.3675 -2.93576,1.20094 -5.70725,3.48543 -2.77148,2.28449 -5.95235,4.15587 -7.0686,4.15861 -1.11625,0.003 -3.99404,1.20274 -6.3951,2.66666 -4.32162,2.6349 -8.15459,3.81867 -4.30111,1.32835 1.1,-0.71087 1.4,-1.29773 0.66667,-1.30413 -1.94824,-0.017 -8.80841,4.71795 -8.00277,5.52358 0.37695,0.37696 -1.41821,1.81824 -3.98926,3.20284 -2.57105,1.3846 -4.67464,3.00234 -4.67464,3.59497 0,2.21329 -12.34651,6.5112 -13.88648,4.83398 -1.05696,-1.15115 -1.00828,-1.32874 0.18066,-0.65902 1.85683,1.04594 8.38297,-1.99171 10.96619,-5.1043 2.26923,-2.73425 1.13245,-2.63629 -4.21981,0.36363 -3.7394,2.09592 -11.70722,4.49817 -11.70722,3.52965 0,-0.17362 6.61654,-4.02094 14.70343,-8.5496 9.05919,-5.07314 14.35433,-8.7988 13.79399,-9.70544 -0.50019,-0.80933 -0.32931,-1.11297 0.37974,-0.67475 1.49023,0.92101 4.46324,-0.99282 16.83893,-10.83978 8.76608,-6.97491 11.90133,-10.43587 5.95057,-6.56877 -1.65,1.07226 -4.4768,2.79127 -6.28177,3.82002 -1.80498,1.02875 -4.09455,2.61717 -5.08794,3.52982 -4.48561,4.12104 -20.45503,12.56528 -22.3719,11.82971 -1.15168,-0.44194 -3.922,0.14178 -6.15627,1.29716 -7.20714,3.72696 -2.67799,-0.41528 5.90975,-5.40491 4.57681,-2.6592 11.02147,-6.58618 14.32147,-8.72661 9.70808,-6.29681 13.33333,-8.1387 13.33333,-6.77427 0,0.70525 -2.39329,2.62737 -5.31842,4.27138 -2.92513,1.64402 -5.05669,3.25085 -4.7368,3.57074 0.75011,0.7501 8.28232,-3.98473 13.26261,-8.33702 2.13072,-1.86205 4.42358,-3.38554 5.09523,-3.38554 1.84524,0 5.46933,-4.00583 4.50055,-4.97461 -0.46619,-0.46619 -1.55762,-0.13762 -2.42539,0.73016 -2.43249,2.43249 -3.96016,1.86782 -2.4716,-0.91358 0.73333,-1.37024 1.01303,-2.81165 0.62156,-3.20312 -0.39147,-0.39148 3.37964,-3.977 8.38024,-7.96784 8.66249,-6.91327 15.48027,-13.62141 11.26138,-11.08026 -1.00685,0.60645 1.39314,-2.928 5.33333,-7.85433 22.55232,-28.19672 35.68239,-53.55036 41.07545,-79.31509 10.58081,-50.5486 4.38873,-101.78096 -18.01458,-149.05007 -2.50996,-5.29581 -4.51462,-10.39581 -4.4548,-11.33334 0.0598,-0.93753 1.01487,0.3954 2.12233,2.96207 1.10745,2.56666 2.79357,5.56666 3.74693,6.66666 1.60463,1.85145 3.19912,5.65502 11.87763,28.33334 1.75395,4.58333 4.58254,14.74047 6.28576,22.57141 1.70322,7.83095 3.71817,14.13095 4.47767,14 0.75951,-0.13094 1.56893,1.71192 1.79873,4.09526 0.22979,2.38333 -0.1377,4.33333 -0.81665,4.33333 -1.34772,0 -1.21402,2.24299 0.93703,15.72006 1.93756,12.13946 2.43532,18.94661 1.38543,18.94661 -0.48083,0 -0.87726,1.65 -0.88095,3.66666 -0.0208,11.38468 -4.29139,38.07406 -7.71847,48.23752 -2.45951,7.294 -2.4592,7.47768 0.009,5.42915 1.15279,-0.95673 2,-1.08631 2,-0.30591 0,0.74467 -1.03318,1.75041 -2.29597,2.23499 -1.96681,0.75474 -2.0146,1.05898 -0.33333,2.12223 1.39301,0.88096 1.46677,1.24712 0.25412,1.26161 -0.93968,0.0112 -2.06732,1.07042 -2.50585,2.35375 -1.23078,3.60173 -9.74008,22.08671 -11.20151,24.33333 -0.71555,1.1 -2.03971,3.5 -2.94256,5.33334 -3.97282,8.06714 -22.73336,33.4695 -23.63773,32.0062 -0.89976,-1.45584 -2.88543,1.25784 -3.22201,4.4033 -0.0633,0.59189 -1.61516,2.23747 -3.44849,3.65685 -2.84207,2.20035 -3.03857,2.78684 -1.33333,3.97943 1.77777,1.24333 1.77777,1.37502 0,1.18517 -4.15928,-0.44415 -5.5975,0.15747 -4.87534,2.0394 0.44123,1.14982 -0.92351,3.33956 -3.3581,5.38814 -2.25578,1.89811 -3.82976,3.72276 -3.49774,4.05478 2.651,2.65099 43.22846,-43.63367 47.3823,-54.04661 0.4388,-1.1 2.40758,-4.4 4.37507,-7.33333 3.80476,-5.67253 12.06429,-23.56902 14.46086,-31.33333 6.10798,-19.78838 10.36717,-41.16126 9.18353,-46.08352 -0.40414,-1.68066 -0.98213,-0.59302 -1.65434,3.11307 -1.84929,10.19562 -2.75235,7.03219 -1.37387,-4.81269 0.7393,-6.35261 1.53804,-9.89003 1.77498,-7.86093 1.00602,8.61538 2.91436,1.0793 2.89556,-11.43463 -0.0139,-9.25559 -0.432,-12.95029 -1.3113,-11.58797 -0.70998,1.1 -0.98693,3.8 -0.61543,6 0.37149,2.2 0.15635,5.8 -0.47808,8 -0.94794,3.28714 -1.31606,1.86143 -2.06557,-8 -0.50164,-6.6 -1.25272,-14.85 -1.66908,-18.33334 -0.62432,-5.22311 -0.38449,-6.33333 1.36809,-6.33333 5.09491,0 -0.59112,-27.17022 -11.78866,-56.33107 -8.39402,-21.85989 -8.28702,-21.62245 -10.61399,-23.55366 -1.17639,-0.97632 -2.1389,-3.01941 -2.1389,-4.5402 0,-2.98418 -6.28996,-12.90841 -8.18133,-12.90841 -0.6336,0 -1.152,-0.77081 -1.152,-1.71292 0,-2.18635 -5.06382,-8.36245 -16,-19.51442 -11.5166,-11.74385 -18.52535,-17.57962 -10.97206,-9.13578 8.4251,9.41843 6.8166,9.22936 -3.55718,-0.41813 -38.73449,-36.02262 -112.5708,-46.434592 -159.06824,-22.43089 -2.71196,1.40001 -5.73243,2.54547 -6.71217,2.54547 -0.97974,0 -8.8562,3.6074 -17.50323,8.01644 -8.64704,4.40905 -16.24646,7.69224 -16.8876,7.29599 -0.64114,-0.39624 -1.81693,0.49636 -2.61286,1.98356 -0.79593,1.48721 -2.23304,2.70401 -3.19358,2.70401 -0.96054,0 -2.83242,1.2 -4.15974,2.66667 -2.99934,3.31424 -6.15036,3.51349 -5.27138,0.33333 0.35471,-1.28333 -0.11412,-0.804 -1.04184,1.06517 -1.53468,3.09206 -13.98405,15.93484 -15.44671,15.93484 -1.12435,0 -11.99771,11.68851 -15.95406,17.1501 -2.6965,3.72241 -4.32042,4.94882 -5.28096,3.98828 -0.96055,-0.96054 -2.25275,1.0087 -4.20223,6.40394 -3.39052,9.38334 -4.80445,11.88091 -6.51696,11.51161 -0.71259,-0.15368 -1.66871,2.05375 -2.12471,4.90539 -0.45599,2.85163 -1.7288,6.08451 -2.82845,7.18416 -1.09965,1.09966 -1.99937,3.17365 -1.99937,4.60887 0,2.67189 -1.68121,6.35466 -5.59111,12.24765 -1.21639,1.83333 -2.63781,5.73333 -3.15872,8.66666 -1.06641,6.00527 -4.76272,15.33334 -6.07593,15.33334 -1.40875,0 -2.00564,-5.69856 -1.04745,-10 l 0.89104,-4 0.17817,4 c 0.27656,6.20893 2.54131,1.43946 3.47672,-7.32185 1.02522,-9.60233 3.37403,-18.67815 4.83389,-18.67815 0.63803,0 1.16006,-1.21498 1.16006,-2.69995 0,-8.60918 27.81985,-50.07864 39.30527,-58.59012 1.45224,-1.0762 5.74145,-4.6762 9.53159,-8 6.88926,-6.0416 29.87998,-21.38248 32.02626,-21.36998 0.62529,0.004 -0.66312,1.54019 -2.86312,3.41455 -2.2,1.87435 -3.4,3.21793 -2.66666,2.98573 2.36217,-0.74795 15.97758,-8.06098 16.66666,-8.9519 0.36667,-0.47406 3.24429,-1.99896 6.39472,-3.38865 3.15043,-1.38969 6.99224,-3.62313 8.53735,-4.9632 1.54511,-1.34007 3.85329,-2.43649 5.12929,-2.43649 1.276,0 2.62548,-0.79606 2.99884,-1.76902 0.37336,-0.97297 3.58756,-2.86794 7.14265,-4.21106 3.5551,-1.34312 6.85674,-3.04012 7.33699,-3.77112 0.48024,-0.73099 2.58024,-1.45527 4.66666,-1.60951 7.13308,-0.5273 13.7935,-2.26836 13.7935,-3.60567 0,-0.747292 -1.61616,-1.011892 -3.66667,-0.600322 -11.43148,2.294502 -15.35745,3.390832 -16.60305,4.636422 -0.76371,0.76371 -2.276,1.04802 -3.36065,0.6318 -1.08465,-0.41622 -2.387,-0.0854 -2.8941,0.73508 -0.50711,0.82051 -3.66964,1.72073 -7.02786,2.00048 -7.09347,0.59092 -22.44767,7.41233 -22.44767,9.97282 0,0.96111 -0.63781,1.3533 -1.41735,0.87151 -0.77954,-0.48178 -2.49737,0.10143 -3.81739,1.29603 -4.34422,3.93147 -8.49737,3.93735 -5.92301,0.008 1.17211,-1.78887 3.2267,-3.25249 4.56574,-3.25249 1.33905,0 2.75756,-0.52251 3.15224,-1.16112 0.39469,-0.63862 2.52169,-1.52193 4.72667,-1.96293 2.20498,-0.44099 5.05081,-2.01849 6.32406,-3.50555 1.27326,-1.48705 3.48167,-2.70374 4.90759,-2.70374 1.42591,0 2.21029,-0.38227 1.74307,-0.84949 -0.46723,-0.46722 0.42276,-2.63622 1.97774,-4.81998 2.84366,-3.993572 0.0929,-4.589922 -4.90602,-1.0636 -2.60542,1.8379 -14.17413,5.67006 -14.90641,4.93778 -0.40941,-0.40941 -1.55214,-0.023 -2.53939,0.85879 -5.60164,5.00302 -11.03907,8.22942 -12.09292,7.17556 -0.35402,-0.35401 0.93484,-1.75262 2.86413,-3.10802 1.92928,-1.35541 5.20693,-3.81437 7.28366,-5.46437 2.07673,-1.65 4.70945,-3 5.85048,-3 1.14103,0 2.55442,-0.83542 3.14086,-1.8565 1.18005,-2.054642 10.16007,-6.133762 13.56242,-6.160662 2.6169,-0.0207 16.17768,-6.39433 13.92396,-6.54434 -0.86892,-0.0578 -3.26892,0.55897 -5.33333,1.3707 -9.41142,3.70057 -12.08427,4.06217 -8.42013,1.13913 3.33333,-2.65914 3.33333,-2.65914 -0.53184,-1.26126 -3.22682,1.16701 -3.6141,1.09534 -2.3449,-0.43394 0.83615,-1.0075 1.12547,-2.226615 0.64295,-2.709142 -0.48253,-0.482527 -0.15805,-0.877321 0.72106,-0.877321 2.62298,0 11.31757,-3.972932 10.49493,-4.795579 -0.41832,-0.418316 -3.58671,0.48956 -7.04088,2.017502 -3.45417,1.527942 -7.17965,2.778077 -8.27886,2.778077 -2.02039,0 -23.0885,10.579433 -24.33895,12.221903 -0.37206,0.48871 -6.26906,3.671882 -13.10443,7.073712 -8.45749,4.20913 -14.63094,8.41918 -19.32352,13.17787 -16.79821,17.03485 -35.81703,37.51126 -37.14394,39.99061 -0.79611,1.48753 6.02323,-4.90835 15.15408,-14.21308 15.90119,-16.20398 19.62782,-19.30185 17.94546,-14.91768 -0.42211,1.1 -0.18631,2 0.52401,2 0.71032,0 1.29149,-0.48532 1.29149,-1.07849 0,-0.59317 0.90835,-2.24317 2.01856,-3.66667 1.92034,-2.46222 2.00145,-2.39351 1.66667,1.41183 -0.19354,2.2 -0.69357,4.3 -1.11116,4.66666 -0.41759,0.36667 -3.10072,3.36667 -5.96252,6.66667 -2.86179,3.3 -3.72012,4.68997 -1.90741,3.08882 8.56604,-7.56627 14.69996,-5.66893 6.62397,2.04892 -2.20287,2.10518 -4.66156,5.7104 -5.46376,8.0116 -0.97653,2.80126 -2.33626,4.184 -4.1144,4.184 -3.39138,0 -7.64808,5.06193 -7.70559,9.16326 -0.036,2.57011 -0.39712,2.87049 -1.92566,1.60192 -2.19908,-1.82508 -3.84515,-0.008 -2.6988,2.97963 0.41904,1.092 0.12099,2.38155 -0.66234,2.86567 -0.78332,0.48413 -1.42423,0.20941 -1.42423,-0.61048 0,-0.8199 -0.6,-1.1199 -1.33333,-0.66667 -0.73334,0.45322 -1.33334,2.02404 -1.33334,3.49071 0,1.69648 -0.56752,2.31592 -1.55991,1.70259 -1.00325,-0.62005 -1.29475,-0.27307 -0.81686,0.9723 0.40869,1.06502 -1.28018,4.91345 -3.75303,8.55206 -2.47285,3.63862 -4.50526,7.36567 -4.51647,8.28234 -0.0112,0.91667 -0.50492,1.66667 -1.09713,1.66667 -0.5922,0 -2.17875,2.49778 -3.52566,5.55062 -2.18901,4.9615 -2.62702,5.30708 -4.12682,3.25599 -1.90254,-2.60188 -5.93745,1.47802 -5.93745,6.00365 0,2.47981 -3.83886,11.95085 -3.99506,9.8564 -0.19892,-2.66737 -3.91228,5.42702 -3.9759,8.66667 -0.14045,7.15278 -1.79057,10.55256 -2.91217,6 -0.9262,-3.75944 -0.96608,-3.70492 -0.66315,0.90647 0.17727,2.69856 -0.0723,4.6626 -0.55457,4.36454 -1.22881,-0.75945 -3.895,13.26544 -3.91956,20.61803 -0.0253,7.56377 -2.53487,12.54945 -2.74044,5.4443 -0.13502,-4.66667 -0.13502,-4.66667 -1.313243,-0.72032 -1.35934,4.553 1.085019,7.32357 3.554423,4.02877 1.9713,-2.63021 3.18179,-2.49499 3.20676,0.35821 0.0176,2.0096 0.21302,2.05585 1.40865,0.33334 1.01591,-1.46359 1.23026,-0.21196 0.79923,4.66666 -1.04551,11.83363 1.79776,44.82641 4.36638,50.66667 3.54591,8.06231 3.7842,9.11201 2.7241,12 -0.87096,2.3727 -1.21198,2.15223 -3.09354,-2 -2.03197,-4.48416 -2.08344,-4.51023 -1.31617,-0.66667 0.43918,2.2 1.6143,5.62021 2.61138,7.60046 0.99709,1.98025 1.79971,4.38025 1.7836,5.33333 -0.0776,4.59375 -5.73411,-11.1228 -6.09458,-16.93379 -0.48082,-7.75129 -2.36633,-18.2841 -4.29632,-24 -1.88881,-5.59395 -2.17696,2.69781 -0.34213,9.84531 0.68072,2.65175 1.90616,8.92859 2.72319,13.94853 2.64879,16.27457 12.82099,37.53468 23.00695,48.08502 4.92529,5.10147 6.67755,8.56299 3.36551,6.64842 -0.91667,-0.5299 -0.16667,0.48999 1.66666,2.26641 1.83333,1.77643 4.83333,5.47047 6.66667,8.20898 1.83333,2.73851 3.72333,4.98322 4.2,4.98823 1.52718,0.0161 10.46742,9.55184 10.44655,11.14244 -0.0111,0.84333 -4.81106,-3.33688 -10.66667,-9.28936 -5.8556,-5.95248 -10.64655,-10.25354 -10.64655,-9.55792 0,0.69563 -2.25,-0.10799 -5,-1.78581 -5.27875,-3.22065 -5.1643,-2.94236 2.97259,7.22806 2.95354,3.69167 5.86576,6.10738 6.88921,5.71465 0.97508,-0.37417 1.63008,0.0481 1.45554,0.93836 -0.17454,0.89028 0.43266,1.46869 1.34933,1.28535 0.91666,-0.18333 1.66666,0.53785 1.66666,1.60262 0,1.06477 2.85,3.85807 6.33334,6.20733 13.27438,8.95265 17.0949,15.20664 5.24973,8.59356 -3.21468,-1.79474 -8.66949,-3.97441 -12.12178,-4.84371 -3.7037,-0.9326 -8.0076,-3.28441 -10.49865,-5.73684 -5.20518,-5.12447 -20.95509,-26.2255 -20.98305,-28.11215 -0.0112,-0.75761 -0.58088,-0.49118 -1.26588,0.59207 -0.82425,1.30346 -0.66043,2.65624 0.48442,4 3.02895,3.55525 3.98468,7.44976 1.28077,5.21905 -3.65895,-3.01862 -0.0972,2.87259 7.01847,11.60874 3.32881,4.08688 5.85369,7.62774 5.61084,7.86858 -0.95255,0.94465 -6.20661,-4.42673 -13.04135,-13.33258 -5.4597,-7.11412 -6.94056,-8.43494 -6.22806,-5.55495 0.61487,2.48535 0.46018,3.48508 -0.45202,2.92131 -2.25038,-1.39081 -1.58003,2.30034 1.26528,6.96697 3.06511,5.02714 4.59086,5.64587 3.28794,1.33334 -1.57609,-5.21667 1.46546,-0.96052 7.38444,10.33333 7.57221,14.44832 17.03836,24.36053 19.6726,20.59962 1.01865,-1.45433 2.41104,-2.29878 3.09419,-1.87657 2.06258,1.27474 1.39316,3.25122 -0.81426,2.40416 -1.76167,-0.67602 -1.72333,-0.14456 0.26754,3.70851 1.93645,3.74774 3.11294,4.52798 7.05637,4.67971 3.11518,0.11987 8.56684,2.51206 15.95259,7 11.61548,7.05814 16.67461,9.02084 9.95968,3.86387 -6.57352,-5.04836 -7.58974,-8.70185 -1.26834,-4.55991 1.83042,1.19934 4.30653,2.18061 5.50246,2.18061 1.19592,0 4.03028,1.32149 6.29856,2.93665 2.26829,1.61516 5.46523,2.82566 7.10434,2.69 1.6391,-0.13565 5.42586,0.61624 8.41501,1.67088 4.84484,1.70935 7.57119,0.84686 4.1015,-1.29753 -0.73333,-0.45322 -1.33333,-1.37577 -1.33333,-2.0501 0,-1.42872 5.77845,0.86641 10.87249,4.31843 4.3985,2.98068 5.28008,3.01403 4.18423,0.1583 -0.80501,-2.09783 -0.65655,-2.09783 2.33852,0 1.75896,1.23202 4.77512,2.24004 6.70259,2.24004 7.31677,0 24.13051,15.3646 32.46504,29.66695 2.02997,3.48349 4.17032,6.03729 4.75634,5.67511 2.36085,-1.45909 3.8966,14.85513 2.05542,21.8347 -1.903,7.21395 -6.78901,16.15658 -8.82751,16.15658 -0.67946,0 -2.19567,2.4 -3.36936,5.33333 -1.17369,2.93333 -2.84149,5.33333 -3.70624,5.33333 -0.86474,0 -3.64959,1.77562 -6.18856,3.94581 -2.53896,2.1702 -5.5163,3.99654 -6.6163,4.05853 -1.1,0.062 -4.38055,0.96055 -7.29011,1.9968 -2.90956,1.03625 -5.60956,1.42306 -6,0.85956 -1.10959,-1.6014 -7.19436,-1.16641 -9.04242,0.64643 -3.58912,3.52073 -33.77604,4.20428 -37.95251,0.85941 -0.94323,-0.75543 -3.1633,-1.81858 -4.93348,-2.36256 -1.77018,-0.54398 -6.04184,-3.01741 -9.49257,-5.49651 -3.45074,-2.47911 -6.9524,-4.50747 -7.78149,-4.50747 -0.82908,0 -1.51267,-0.45 -1.51909,-1 -0.006,-0.55 -3.75641,-3.38992 -8.33333,-6.31093 -4.57692,-2.92101 -9.05576,-6.01223 -9.95297,-6.86939 -0.89722,-0.85716 -3.89722,-2.93975 -6.66667,-4.62798 -4.75215,-2.89686 -12.3009,-10.23395 -12.3474,-12.00118 -0.0117,-0.44521 -5.46869,-5.54521 -12.12661,-11.33333 -6.657923,-5.78812 -14.341498,-12.62386 -17.074609,-15.19052 -2.73311,-2.56667 -6.135719,-5.61257 -7.561353,-6.76868 C 35.373989,449.9723 4.0771445,376.73719 4.4310545,312.11764 c 0.142287,-25.9799 1.245603,-24.46934 3.788085,5.18628 0.698517,8.14754 1.8652865,17.21372 2.5928205,20.14705 1.116647,4.5022 1.204284,3.87884 0.562358,-4 -0.418237,-5.13333 -0.703424,-20.91177 -0.63375,-35.06318 0.0723,-14.68403 -0.381569,-25.41574 -1.0572207,-24.99817 -0.6511448,0.40243 -0.8566128,-0.51985 -0.4565948,-2.04952 0.4678168,-1.78894 1.0664495,-2.23247 1.6778785,-1.24316 0.522816,0.84593 1.678442,-3.15335 2.568057,-8.88729 0.889615,-5.73394 2.693116,-12.82535 4.007779,-15.75868 1.314664,-2.93334 2.793369,-8.03334 3.286012,-11.33334 1.326153,-8.88331 3.615128,-15.27899 4.788678,-13.38014 0.672852,1.0887 1.226436,0.71022 1.719603,-1.17565 0.400018,-1.52967 0.183261,-2.44498 -0.481683,-2.03402 -2.013327,1.2443 -1.414745,-1.0936 3.457679,-13.50478 2.566666,-6.53789 4.666666,-12.37964 4.666666,-12.98167 0,-0.60204 1.508186,-4.39184 3.351523,-8.42179 1.843338,-4.02995 4.086541,-9.68226 4.984896,-12.56069 2.256946,-7.23152 5.621658,-8.46884 4.416742,-1.62419 l -0.883052,5.01627 2.652323,-4.23518 c 1.458778,-2.32935 3.96189,-7.27935 5.562471,-11 1.600581,-3.72066 3.450092,-6.76483 4.110026,-6.76483 0.659933,0 0.316372,1.35001 -0.76347,3.00001 -1.079841,1.65 -2.383364,5.7 -2.896717,9 -0.513353,3.3 -2.354359,9.1349 -4.091124,12.96645 -3.889267,8.58027 -4.018187,17.06524 -0.183641,12.08651 1.293243,-1.67913 3.036284,-5.15296 3.873424,-7.71963 0.837139,-2.56667 2.034342,-5.22142 2.660451,-5.89945 1.480489,-1.60326 0.549485,5.42513 -1.379964,10.4177 -0.818673,2.11837 -1.241083,4.099 -0.938686,4.4014 0.302396,0.30239 1.203659,-1.32582 2.002808,-3.61826 0.799148,-2.29244 2.06852,-3.78766 2.820827,-3.32271 0.752306,0.46495 1.367829,-0.0258 1.367829,-1.09067 0,-1.93179 3.808672,-4.19045 5.02132,-2.9778 0.351806,0.3518 -1.777925,6.81593 -4.732735,14.36472 -9.441894,24.12165 -15.115684,42.54441 -14.663666,47.61283 0.369305,4.14098 1.093622,2.73209 5.426069,-10.55443 6.130783,-18.80155 11.444739,-31.73103 18.851616,-45.86821 7.214227,-13.76947 14.568419,-25.23703 13.338137,-20.79845 -0.508162,1.83333 -1.963512,4.83333 -3.234112,6.66666 -2.749779,3.96763 -13.936798,25.78364 -15.896474,31 -2.172894,5.78393 -0.269567,4.27155 2.517003,-2 l 2.517809,-5.66666 0.09418,5.06621 c 0.0518,2.78642 -0.754379,6.70715 -1.791509,8.71274 -1.037131,2.00559 -2.221524,6.02579 -2.631984,8.93379 -0.746291,5.28726 -0.746291,5.28726 0.912549,0.62059 3.518016,-9.89691 10.486668,-20.84924 8.271529,-13 -0.465648,1.65 1.325895,-0.81802 3.981206,-5.4845 2.655311,-4.66647 4.518327,-8.79401 4.140036,-9.1723 -0.378292,-0.37829 -1.406576,0.88973 -2.285077,2.81783 -0.878501,1.9281 -2.150965,3.50564 -2.827699,3.50564 -1.420765,0 -1.523161,0.26993 3.540518,-9.33334 2.126726,-4.03333 4.140788,-6.53083 4.475694,-5.55 0.334905,0.98084 -0.05858,2.45084 -0.874414,3.26667 -0.815833,0.81583 -1.483333,2.09684 -1.483333,2.84667 0,1.6269 3.089514,-2.62617 8.988896,-12.37421 2.37796,-3.92932 3.93207,-7.82932 3.45357,-8.66667 -0.4785,-0.83735 -0.37762,-1.07627 0.22418,-0.53094 0.60179,0.54534 1.93904,-0.2147 2.971659,-1.68897 1.032624,-1.47427 2.418844,-2.34592 3.080504,-1.93699 0.66166,0.40893 1.58026,-0.75953 2.04133,-2.59658 0.46106,-1.83705 1.97866,-3.70202 3.37242,-4.14438 1.39376,-0.44237 2.53411,-1.32895 2.53411,-1.97019 0,-0.64125 3,-4.59417 6.66667,-8.78427 3.66667,-4.19011 6.66667,-8.0613 6.66667,-8.60264 0,-4.69736 37.99132,-35.33298 41.28905,-33.29486 1.15898,0.71629 3.65291,-0.0422 6.91989,-2.104542 5.72077,-3.61137 21.83999,-11.20143 23.78877,-11.20143 0.69536,0 3.83033,-1.15926 6.96661,-2.57613 3.13629,-1.416871 12.60234,-5.3799 21.03567,-8.806732 8.43333,-3.426832 15.63333,-6.563173 16,-6.969645 0.36667,-0.406473 -0.43347,-0.343036 -1.77808,0.140971 -1.54075,0.55461 -2.25842,0.32103 -1.94085,-0.631688 0.27715,-0.831435 2.57729,-2.181843 5.11142,-3.000907 2.53413,-0.819063 4.60751,-2.346038 4.60751,-3.393277 0,-5.023409 37.11003,-9.322857 61.32121,-7.104476 17.19881,1.575863 46.20057,7.89488 61.34545,13.366188 5.13334,1.854491 11.73334,3.351759 14.66667,3.327263 3.89354,-0.03251 4.61344,0.233974 2.66667,0.987134 -2.1982,0.850431 -1.02702,1.759826 6.66666,5.17653 5.13334,2.279672 10.23334,4.74777 11.33334,5.484662 1.1,0.736893 3.5,1.978337 5.33333,2.758767 1.83333,0.78043 4.53333,2.43685 6,3.68094 1.46667,1.24408 4.76667,3.40927 7.33333,4.81155 11.956,6.532032 26.2684,17.259012 37.29933,27.955412 5.17058,5.01378 9.93245,8.60156 10.74767,8.09772 0.80507,-0.49756 2.30476,0.20543 3.33264,1.5622 2.88843,3.81261 2.28918,5.16509 -1.03687,2.34017 -1.64482,-1.39699 -0.34254,0.46001 2.89394,4.12668 3.23648,3.66667 6.11395,6.94838 6.39437,7.29269 0.28042,0.34432 0.0762,-0.50411 -0.45386,-1.88539 -0.73279,-1.90961 -0.5289,-2.24268 0.85084,-1.38996 1.80958,1.11838 -2.86934,-7.46046 -6.24795,-11.45566 -0.97906,-1.15774 -1.78011,-2.50318 -1.78011,-2.98986 0,-0.93527 -3.6632,-5.37291 -9.54229,-11.55961 -2.70823,-2.84994 -3.93157,-3.36871 -5.1956,-2.20326 -1.26577,1.16705 -1.41108,1.09864 -0.61991,-0.29187 0.69761,-1.22606 -0.86356,-3.52127 -4.8044,-7.06337 -3.21079,-2.88592 -4.52122,-4.61538 -2.91206,-3.84325 1.60916,0.77213 3.29457,2.00065 3.74536,2.73004 0.45079,0.72939 1.47048,1.32617 2.26599,1.32617 0.79551,0 -1.4899,-2.221 -5.07869,-4.93555 -3.58878,-2.71455 -7.29667,-5.996822 -8.23973,-7.293922 -1.57413,-2.16507 -15.06286,-11.770533 -16.52909,-11.770533 -0.34892,0 -5.38682,-2.769091 -11.19533,-6.153535 -5.8085,-3.384444 -9.36091,-5.782972 -7.89425,-5.330062 2.62661,0.811104 2.62779,0.793384 0.0785,-1.179799 -3.06919,-2.375584 -5.2941,-2.636821 -3.95118,-0.463926 0.59417,0.961386 0.36525,1.177099 -0.60972,0.574535 -0.8586,-0.530645 -1.24757,-1.472104 -0.86437,-2.092131 0.3832,-0.620027 0.24298,-1.380231 -0.31159,-1.689342 -0.55457,-0.309111 -0.33142,-0.407245 0.49589,-0.218074 0.82731,0.189171 2.08273,-0.234595 2.78984,-0.941702 0.82531,-0.82531 1.89677,-0.549296 2.9924,0.77086 0.93871,1.13108 2.53328,2.056509 3.54349,2.056509 1.01021,0 1.83674,0.9 1.83674,2 0,1.1 1.05889,2 2.35308,2 1.29419,0 4.72113,1.269198 7.61541,2.82044 3.4202,1.83312 5.43585,2.299865 5.75803,1.333334 0.78236,-2.347087 3.10064,-1.731346 2.66526,0.707901 -0.21548,1.207255 0.44174,2.485094 1.46048,2.839643 1.23843,0.431005 1.50156,0.07718 0.79399,-1.067687 -0.67898,-1.098609 -0.52743,-1.38424 0.42284,-0.796942 0.81461,0.503458 1.19534,1.660098 0.84606,2.570312 -0.70288,1.831655 6.15152,5.224339 12.23637,6.056579 0.81666,0.1117 3.03867,1.75691 4.93778,3.65602 3.39819,3.39819 12.89877,3.76384 10.8302,0.41682 -0.42373,-0.68562 -1.32897,-0.90139 -2.01163,-0.47948 -0.68266,0.42191 -1.2412,-0.024 -1.2412,-0.99085 0,-0.96688 -1.25843,-2.54387 -2.79651,-3.50441 -3.63245,-2.268504 -2.33151,-3.592534 1.50988,-1.536682 1.98077,1.060072 2.64571,1.095362 2.03551,0.108027 -0.51096,-0.826746 4.4e-4,-1.466358 1.17243,-1.466358 1.30359,0 2.07869,1.189727 2.07869,3.190683 0,1.75487 0.98486,3.56861 2.18859,4.03052 1.82996,0.70222 1.91245,0.50712 0.50341,-1.19068 -2.80701,-3.38223 -0.59093,-2.29227 5.23397,2.5743 3.09628,2.58687 6.36145,4.2787 7.4509,3.86064 1.16743,-0.44799 2.34072,0.31583 2.94787,1.91908 0.55473,1.464792 5.50859,7.586322 11.00859,13.603402 5.5,6.01708 10.2,11.48133 10.44444,12.14277 0.24445,0.66144 1.29445,1.20262 2.33334,1.20262 1.03889,0 1.88889,0.63541 1.88889,1.41202 0,0.78438 -0.74084,0.95893 -1.66667,0.39268 -0.91667,-0.56064 -0.0167,0.94999 2,3.35695 2.01667,2.40696 3.66667,4.82538 3.66667,5.37426 0,0.54889 2.56613,4.30266 5.70253,8.34172 11.24757,14.48464 29.6851,56.30097 36.06219,81.78904 5.30428,21.20021 8.58941,44.63578 11.30764,80.66667 1.17463,15.57005 -1.86983,41.11347 -6.75396,56.66667 -1.8423,5.86667 -3.76143,13.36667 -4.26475,16.66667 -0.50332,3.3 -1.23557,7.12513 -1.62724,8.5003 -0.45993,1.61489 -0.18936,2.17723 0.76407,1.58798 1.8223,-1.12624 1.83272,-0.1813 0.0725,6.57838 -1.43082,5.49487 -1.76589,6.37702 -6.40115,16.85287 -1.50547,3.40241 -3.11801,7.70343 -3.58344,9.55782 -0.46542,1.8544 -2.50793,5.23286 -4.5389,7.50769 -2.59774,2.90966 -3.50527,5.11638 -3.06067,7.44218 0.36754,1.92265 0.009,3.30611 -0.85676,3.30611 -0.81883,0 -1.48877,1.11909 -1.48877,2.48686 0,1.36777 -1.19157,4.00169 -2.64794,5.85316 -1.45636,1.85147 -4.1152,6.28238 -5.90851,9.84648 -1.79332,3.56409 -5.10175,8.53823 -7.35207,11.05365 -2.25031,2.51541 -4.09148,5.24232 -4.09148,6.0598 0,1.42769 -7.16757,9.61969 -19.05248,21.77557 -3.0878,3.1582 -4.56419,5.34401 -3.28085,4.85735 3.35403,-1.2719 2.87731,1.4017 -0.66667,3.73889 -1.65,1.08814 -6.55751,5.50715 -10.90559,9.82001 -4.34807,4.31286 -8.4602,7.67086 -9.13807,7.46221 -2.3655,-0.7281 -6.35727,1.26175 -5.99159,2.98673 0.48846,2.3041 -13.43285,12.71847 -15.79145,11.81339 -1.01198,-0.38834 -1.83997,-0.0823 -1.83997,0.68007 0,0.76237 -1.2,1.767 -2.66666,2.2325 -1.46667,0.4655 -2.66667,1.98281 -2.66667,3.37179 0,1.8063 -1.47731,2.92323 -5.18802,3.92242 -2.99078,0.80533 -6.10963,2.80353 -7.36407,4.71806 -1.34156,2.04747 -3.43221,3.32107 -5.45166,3.32107 -4.20261,0 -14.22107,3.84215 -16.14324,6.19104 -0.81418,0.99493 -2.78301,1.80896 -4.37518,1.80896 -1.59217,0 -3.22568,0.86211 -3.63002,1.91581 -0.40434,1.05369 -1.51392,1.61697 -2.46574,1.25172 -0.95182,-0.36524 -4.35216,0.50772 -7.55632,1.93993 -7.55786,3.37823 -10.42483,4.35171 -14.49241,4.92085 -1.83334,0.25652 -8.60657,1.70509 -15.05164,3.21904 -13.07298,3.07086 -15.61503,3.31731 -15.61503,1.51384 z M 210.47311,558.56251 c -0.48888,-0.48889 -1.28888,-0.48889 -1.77777,0 -0.48889,0.48889 -0.0889,0.88889 0.88889,0.88889 0.97777,0 1.37777,-0.4 0.88888,-0.88889 z m 145.77778,-18.44444 c 0,-0.36667 -0.3,-0.66667 -0.66667,-0.66667 -0.36667,0 -0.66667,0.3 -0.66667,0.66667 0,0.36666 0.3,0.66666 0.66667,0.66666 0.36667,0 0.66667,-0.3 0.66667,-0.66666 z m 7.55555,-18.88889 c -0.48889,-0.48889 -1.28889,-0.48889 -1.77778,0 -0.48888,0.48888 -0.0889,0.88888 0.88889,0.88888 0.97778,0 1.37778,-0.4 0.88889,-0.88888 z m 81.77778,-15.77778 c 0,-0.36667 -0.3,-0.66667 -0.66667,-0.66667 -0.36667,0 -0.66667,0.3 -0.66667,0.66667 0,0.36666 0.3,0.66666 0.66667,0.66666 0.36667,0 0.66667,-0.3 0.66667,-0.66666 z m 5.99056,-3.31806 c 0.46712,-0.75582 -0.0681,-0.97935 -1.25465,-0.52402 -2.30989,0.88639 -2.73251,1.84208 -0.8146,1.84208 0.69005,0 1.62121,-0.59313 2.06925,-1.31806 z m -28,-10.66667 c 0.46712,-0.75581 -0.0681,-0.97934 -1.25464,-0.52402 -2.30989,0.88639 -2.73252,1.84208 -0.81461,1.84208 0.69005,0 1.62122,-0.59313 2.06925,-1.31806 z m -59.89746,-6.74599 c 3.2488,-2.23523 5.9069,-4.36916 5.9069,-4.74205 0,-0.82893 -6.32844,2.85018 -10.75474,6.25238 -5.28002,4.05841 -1.56284,2.90033 4.84784,-1.51033 z m 115.9069,-1.27594 4,-4.66001 -4.33334,3.91612 c -2.38333,2.15387 -4.33333,4.50387 -4.33333,5.22222 0,0.71836 0.15,1.05311 0.33333,0.74389 0.18334,-0.30922 2.13334,-2.65922 4.33334,-5.22222 z m -75.91612,-9.66001 3.91612,-4.33333 -4.33333,3.91612 c -4.03928,3.65037 -4.94621,4.75054 -3.91613,4.75054 0.22947,0 2.17947,-1.95 4.33334,-4.33333 z m 17.24945,1.66667 c 1.32732,-1.46667 2.1133,-2.66667 1.74664,-2.66667 -0.36667,0 -1.75266,1.2 -3.07997,2.66667 -1.32732,1.46666 -2.1133,2.66666 -1.74663,2.66666 0.36666,0 1.75265,-1.2 3.07996,-2.66666 z m 73.46462,-11 c 3.22759,-6.10911 1.24058,-4.13876 -4.70613,4.66666 -4.58136,6.78373 -4.84717,7.46556 -1.42947,3.66667 2.30913,-2.56667 5.07015,-6.31667 6.1356,-8.33333 z m -61.53221,0.69535 c 0.95469,-2.4879 0.24258,-2.10436 -3.36666,1.81324 -3.08282,3.34622 -3.09477,3.42468 -0.25816,1.69535 1.63584,-0.99728 3.26701,-2.57615 3.62482,-3.50859 z m -17.41473,-3.78788 c 0.48184,-1.25566 -0.64647,-0.90631 -3.22138,0.9974 -2.17963,1.61147 -3.96296,3.43095 -3.96296,4.04327 0,1.64637 6.3198,-2.78774 7.18434,-5.04067 z m -16.82471,-5.90747 c 0.81564,0 1.85381,-0.6 2.30703,-1.33334 1.53075,-2.4768 -1.82863,-1.35498 -4.99099,1.66667 -1.72683,1.65 -2.16305,2.25 -0.96937,1.33333 1.19369,-0.91666 2.83768,-1.66666 3.65333,-1.66666 z m 99.86258,0.44444 c -0.48888,-0.48889 -0.88888,-0.0889 -0.88888,0.88889 0,0.97778 0.4,1.37778 0.88888,0.88889 0.48889,-0.48889 0.48889,-1.28889 0,-1.77778 z m -55.55555,-1.11111 c 0,-0.36667 -0.3,-0.66667 -0.66667,-0.66667 -0.36666,0 -0.66666,0.3 -0.66666,0.66667 0,0.36667 0.3,0.66667 0.66666,0.66667 0.36667,0 0.66667,-0.3 0.66667,-0.66667 z M 27.080316,402.5514 c -1.571793,-2.70296 -1.95135,-1.83781 -0.664712,1.51511 0.457262,1.19161 1.11226,1.88568 1.455552,1.54239 0.343291,-0.34329 -0.01259,-1.71917 -0.79084,-3.0575 z m 524.726124,-5.32223 c -0.48889,-0.48889 -0.88889,-0.0889 -0.88889,0.88889 0,0.97778 0.4,1.37778 0.88889,0.88889 0.48889,-0.48889 0.48889,-1.28889 0,-1.77778 z m -447.99641,-6.11111 c -0.33086,-4.9536 -1.88635,-8.03384 -3.54068,-7.01141 -0.621844,0.38432 -2.128603,-2.3059 -3.348363,-5.97825 -2.39094,-7.19843 -3.90443,-8.97593 -2.56322,-3.01034 3.57119,15.88442 10.193253,27.09369 9.452263,16 z m -2.67025,2.11111 c -0.48889,-0.48889 -0.88889,-2.38889 -0.88889,-4.22222 0,-4.13764 1.64493,-2.7658 2.12913,1.77564 0.37565,3.5234 0.1943,3.88113 -1.24024,2.44658 z m 452.44443,1.55556 c 0,-0.36667 -0.3,-0.66667 -0.66666,-0.66667 -0.36667,0 -0.66667,0.3 -0.66667,0.66667 0,0.36666 0.3,0.66666 0.66667,0.66666 0.36666,0 0.66666,-0.3 0.66666,-0.66666 z M 27.806441,391.89584 c -0.488889,-0.48889 -0.888889,-0.0889 -0.888889,0.88889 0,0.97777 0.4,1.37777 0.888889,0.88889 0.488889,-0.48889 0.488889,-1.28889 0,-1.77778 z m -1.849719,-4.49733 c -0.391149,-1.49575 -1.0091,-2.42163 -1.373226,-2.05751 -0.721324,0.72133 0.552788,4.77706 1.500717,4.77706 0.321028,0 0.263657,-1.2238 -0.127491,-2.71955 z m 98.294168,-1.94712 c 0,-0.36666 -0.3,-0.66666 -0.66667,-0.66666 -0.36667,0 -0.66667,0.3 -0.66667,0.66666 0,0.36667 0.3,0.66667 0.66667,0.66667 0.36667,0 0.66667,-0.3 0.66667,-0.66667 z M 22.253776,373.93222 c -1.180607,-4.66445 -2.993138,-10.88083 -4.027847,-13.81416 -1.034709,-2.93333 -2.52551,-7.88333 -3.312892,-11 -1.448726,-5.73445 -4.595976,-8.20528 -3.396698,-2.66667 4.673334,21.58282 6.798412,28.48368 9.67824,31.42857 0.947635,0.96905 1.722974,2.71905 1.722974,3.88889 0,1.16984 0.333626,1.79336 0.741391,1.3856 0.407765,-0.40777 -0.22456,-4.55777 -1.405168,-9.22223 z m -11.17346,-10.04749 c -1.5717915,-2.70296 -1.9513495,-1.83781 -0.664712,1.51512 0.457262,1.1916 1.11226,1.88568 1.455552,1.54238 0.343292,-0.34329 -0.01259,-1.71917 -0.79084,-3.0575 z m 102.303254,-4.43579 c -1.97051,-5.65262 -3.67073,-6.19118 -1.92364,-0.60933 0.7939,2.53648 1.86544,4.61178 2.38118,4.61178 0.51575,0 0.30986,-1.8011 -0.45754,-4.00245 z m -6.46602,-13.91886 c 0,-0.32339 -0.6,-0.9588 -1.33333,-1.41202 -0.73333,-0.45323 -1.33333,-0.18864 -1.33333,0.58798 0,0.77661 0.6,1.41202 1.33333,1.41202 0.73333,0 1.33333,-0.26459 1.33333,-0.58798 z M 61.70388,333.14104 c -1.703026,-2.92503 -2.018982,3.59845 -0.434789,8.97702 0.885625,3.00683 1.022194,2.84582 1.394244,-1.64368 0.226847,-2.73736 -0.204908,-6.03736 -0.959455,-7.33334 z m 410.45329,-53.35632 c -0.0539,-4.40659 -0.49246,-6.65751 -1.03143,-5.29346 -0.92197,2.33334 -0.4312,12.96013 0.59852,12.96013 0.28964,0 0.48445,-3.45 0.43291,-7.66667 z m -370.57295,-25 c 0,-0.36666 -0.3,-0.66666 -0.66667,-0.66666 -0.36666,0 -0.66666,0.3 -0.66666,0.66666 0,0.36667 0.3,0.66667 0.66666,0.66667 0.36667,0 0.66667,-0.3 0.66667,-0.66667 z M 46.473107,246.5625 c -0.488889,-0.48889 -0.888889,-0.0889 -0.888889,0.88889 0,0.97778 0.4,1.37778 0.888889,0.88889 0.488889,-0.48889 0.488889,-1.28889 0,-1.77778 z m 12,-1.33333 c -0.488889,-0.48889 -0.888889,-0.0889 -0.888889,0.88888 0,0.97778 0.4,1.37778 0.888889,0.88889 0.488889,-0.48889 0.488889,-1.28889 0,-1.77777 z m 1.355263,-4.69445 c -0.425635,-1.06364 -0.741577,-0.7477 -0.805556,0.80556 -0.05789,1.40555 0.257237,2.19305 0.700293,1.75 0.443055,-0.44306 0.490424,-1.59306 0.105263,-2.55556 z m 4,-10.66667 c -0.425635,-1.06364 -0.741577,-0.7477 -0.805556,0.80556 -0.05789,1.40556 0.257237,2.19306 0.700293,1.75 0.443055,-0.44306 0.490424,-1.59306 0.105263,-2.55556 z m 45.3114,-3.30555 c -0.48888,-0.48889 -0.88888,-0.0889 -0.88888,0.88889 0,0.97778 0.4,1.37778 0.88888,0.88889 0.48889,-0.48889 0.48889,-1.28889 0,-1.77778 z M 83.420882,213.45139 c 0.854491,-5.33334 0.854491,-5.33334 -1.006345,-1.20702 -2.845244,6.3092 -4.250965,14.39722 -1.716073,9.87368 1.027359,-1.83333 2.252447,-5.73333 2.722418,-8.66666 z m -19.169998,-5.33334 c 0,-0.36666 -0.3,-0.66666 -0.666666,-0.66666 -0.366667,0 -0.666667,0.3 -0.666667,0.66666 0,0.36667 0.3,0.66667 0.666667,0.66667 0.366666,0 0.666666,-0.3 0.666666,-0.66667 z m 18.222222,-2.88889 c -0.488889,-0.48888 -0.888889,-0.0889 -0.888889,0.88889 0,0.97778 0.4,1.37778 0.888889,0.88889 0.488889,-0.48889 0.488889,-1.28889 0,-1.77778 z m 7.712523,-7.57257 c 2.602558,-4.65381 4.731918,-9.362 4.731918,-10.46266 0,-1.10065 1.21634,-3.40364 2.70298,-5.11774 1.48663,-1.71411 3.081733,-4.62565 3.544663,-6.4701 1.00927,-4.02128 10.79845,-18.77576 14.0857,-21.23031 1.28333,-0.95825 2.33333,-2.64366 2.33333,-3.74536 0,-1.10169 0.5785,-1.64554 1.28557,-1.20856 1.14682,0.70878 8.04776,-8.56796 8.04776,-10.81838 0,-1.33733 -10.02333,8.85308 -13.58253,13.80894 -15.207183,21.17458 -18.187973,25.58713 -19.841793,29.3723 -1.041317,2.38333 -2.331844,4.33333 -2.867834,4.33333 -0.53599,0 -2.101102,2.55 -3.478027,5.66667 -3.836885,8.68478 -4.218732,10.1828 -2.816501,11.04943 0.713268,0.44082 0.951653,1.36004 0.529745,2.0427 -0.421908,0.68266 -0.461059,1.2412 -0.087,1.2412 0.374056,0 2.809466,-3.80766 5.412023,-8.46146 z m 14.065261,2.97075 c 0,-0.73333 -0.6,-0.96251 -1.33334,-0.50929 -0.73333,0.45323 -1.33333,1.42405 -1.33333,2.15738 0,0.73334 0.6,0.96252 1.33333,0.50929 0.73334,-0.45322 1.33334,-1.42405 1.33334,-2.15738 z m 39.05347,-3.84446 c 0.38381,-1.46768 0.15379,-2.33227 -0.51115,-1.92131 -0.66495,0.41096 -1.20899,1.61178 -1.20899,2.66851 0,2.75966 0.90599,2.36612 1.72014,-0.7472 z m -87.053475,-1.39546 c 0,-0.61159 -0.6,-1.48281 -1.333334,-1.93603 -0.733333,-0.45323 -1.333333,-0.53771 -1.333333,-0.18774 0,0.34997 -0.366804,1.59218 -0.815121,2.76047 -0.596602,1.55473 -0.239162,1.90316 1.333334,1.29974 1.181649,-0.45345 2.148454,-1.32484 2.148454,-1.93644 z m 56.008665,-8.50544 c 1.74201,-2.87983 2.44843,-4.79179 1.56983,-4.24878 -0.8786,0.54301 -2.571,2.8699 -3.76088,5.17087 -1.18988,2.30098 -2.98561,5.00579 -3.99051,6.01069 -1.00491,1.00491 -1.8271,2.46516 -1.8271,3.24501 0,1.68456 3.60251,-2.89368 8.00866,-10.17779 z m 1.99134,5.90274 c 0.45322,-0.73333 0.52404,-1.33333 0.15737,-1.33333 -0.36666,0 -1.03748,0.6 -1.49071,1.33333 -0.45322,0.73333 -0.52404,1.33333 -0.15738,1.33333 0.36667,0 1.03749,-0.6 1.49072,-1.33333 z M 40.49533,187.1625 c -0.956751,-0.95675 -1.577778,-1.03547 -1.577778,-0.2 0,1.7797 1.576813,3.35652 2.466667,2.46666 0.378888,-0.37888 -0.02111,-1.39888 -0.888889,-2.26666 z m 75.75556,0.95555 c 0,-0.36666 -0.3,-0.66666 -0.66667,-0.66666 -0.36667,0 -0.66667,0.3 -0.66667,0.66666 0,0.36667 0.3,0.66667 0.66667,0.66667 0.36667,0 0.66667,-0.3 0.66667,-0.66667 z m 18.66666,-3.49071 c 0,-0.73333 -0.6,-0.96251 -1.33333,-0.50929 -0.73333,0.45323 -1.33333,1.42405 -1.33333,2.15738 0,0.73333 0.6,0.96251 1.33333,0.50929 0.73333,-0.45323 1.33333,-1.42405 1.33333,-2.15738 z m -90.707499,-3.84262 c 0,-1.77778 -0.143611,-1.77778 -1.292499,0 -0.710875,1.1 -1.292499,2.9 -1.292499,4 0,1.77778 0.143611,1.77778 1.292499,0 0.710874,-1.1 1.292499,-2.9 1.292499,-4 z m 79.147359,-2.50873 c 7.29547,-9.59292 9.26174,-13.15005 8.20978,-14.85216 -0.44386,-0.71818 -0.0716,-1.30578 0.82723,-1.30578 0.89883,0 1.23792,-0.39632 0.75353,-0.88071 -1.08868,-1.08868 -6.00954,3.23967 -7.80567,6.86579 -0.73055,1.47488 0.20345,0.88159 2.07555,-1.31841 4.96854,-5.83878 4.2573,-2.05785 -0.90449,4.80826 -6.91316,9.19575 -10.50221,14.52507 -9.78195,14.52507 0.36414,0 3.34585,-3.52892 6.62602,-7.84206 z m 13.56014,2.50873 c 0.45323,-0.73333 0.52405,-1.33333 0.15738,-1.33333 -0.36667,0 -1.03749,0.6 -1.49071,1.33333 -0.45323,0.73333 -0.52405,1.33333 -0.15738,1.33333 0.36667,0 1.03749,-0.6 1.49071,-1.33333 z m -90.666665,-5.33333 c 0.453225,-0.73334 0.524045,-1.33334 0.157379,-1.33334 -0.366667,0 -1.037487,0.6 -1.490712,1.33334 -0.453225,0.73333 -0.524046,1.33333 -0.157379,1.33333 0.366667,0 1.037487,-0.6 1.490712,-1.33333 z M 495.80644,163.89583 c -0.48889,-0.48889 -0.88889,-0.0889 -0.88889,0.88889 0,0.97778 0.4,1.37778 0.88889,0.88889 0.48889,-0.48889 0.48889,-1.28889 0,-1.77778 z m -54.22222,-1.03242 c 0,-0.32339 -0.69271,-1.01609 -1.53935,-1.53935 -0.95373,-0.58944 -1.17741,-0.36575 -0.58797,0.58798 0.94992,1.537 2.12732,2.06355 2.12732,0.95137 z m 50.68559,-5.74536 c -1.5501,-2.75 -4.05969,-6.5 -5.57687,-8.33333 -2.75851,-3.33334 -2.75851,-3.33334 -0.42657,0.55154 1.28257,2.13669 3.51304,5.88669 4.9566,8.33334 3.61241,6.12258 4.5349,5.63655 1.04684,-0.55155 z m -69.35226,-13 c -3.98323,-4.03333 -7.86273,-7.32483 -8.62112,-7.31443 -0.75838,0.0104 2.1125,3.31039 6.37973,7.33333 10.05407,9.47847 11.60785,9.46537 2.24139,-0.0189 z m -227.99999,-2.15738 c 0,-0.73333 -0.6,-0.96251 -1.33333,-0.50929 -0.73334,0.45323 -1.33334,1.42405 -1.33334,2.15738 0,0.73334 0.6,0.96252 1.33334,0.50929 0.73333,-0.45322 1.33333,-1.42404 1.33333,-2.15738 z m 257.33332,-5.17595 c -0.78493,-1.46667 -2.09903,-2.66667 -2.92022,-2.66667 -0.82119,0 -0.40709,1.2 0.92022,2.66667 1.32732,1.46666 2.64142,2.66666 2.92023,2.66666 0.27881,0 -0.13529,-1.2 -0.92023,-2.66666 z m -308,-17.15707 c 0.36667,-0.38638 -1.13333,0.41295 -3.33333,1.77628 -4.07092,2.52274 -10,8.22609 -10,9.6193 0,0.60507 10.29418,-8.19304 13.33333,-11.39558 z m 289.07078,0.67673 c -11.68407,-12.68993 -49.07077,-36.755757 -49.07077,-31.586872 0,2.58516 1.70779,5.40054 3.27593,5.40054 0.91151,0 4.10878,1.77584 7.10503,3.94632 2.99626,2.170482 7.43628,4.887232 9.86672,6.037232 4.64745,2.19902 17.22125,9.90556 21.75231,13.3321 1.46667,1.10915 4.46667,3.46582 6.66667,5.23706 5.5023,4.42995 5.6837,3.36772 0.40411,-2.36638 z M 388.69533,91.895828 c 0.48889,-0.48889 1.28889,-0.48889 1.77778,0 0.48889,0.48889 0.0889,0.88889 -0.88889,0.88889 -0.97778,0 -1.37778,-0.4 -0.88889,-0.88889 z M 160.25088,106.04389 c 5.60258,-4.95141 2.4118,-3.54508 -4.70595,2.07416 -9.47899,7.48336 -12.19018,10.24445 -5.96071,6.07041 3.3,-2.21115 8.1,-5.87621 10.66666,-8.14457 z m 120.8889,-6.148062 c -0.48889,-0.48889 -1.28889,-0.48889 -1.77778,0 -0.48889,0.488892 -0.0889,0.888892 0.88889,0.888892 0.97778,0 1.37778,-0.4 0.88889,-0.888892 z m 4.44444,-1.11111 c 0,-0.36667 -0.3,-0.66667 -0.66666,-0.66667 -0.36667,0 -0.66667,0.3 -0.66667,0.66667 0,0.36666 0.3,0.66666 0.66667,0.66666 0.36666,0 0.66666,-0.3 0.66666,-0.66666 z m 181.33333,-2.66667 c 0,-0.36667 -0.3,-0.66667 -0.66667,-0.66667 -0.36666,0 -0.66666,0.3 -0.66666,0.66667 0,0.36667 0.3,0.66667 0.66666,0.66667 0.36667,0 0.66667,-0.3 0.66667,-0.66667 z m -262.54708,-4.14409 c 0.84715,-1.02075 2.6314,-1.85591 3.96499,-1.85591 2.4172,0 4.74811,-2.27843 3.55328,-3.47327 -0.5545,-0.554495 -14.30451,7.34149 -14.30451,8.21441 0,1.02173 5.47595,-1.30642 6.78624,-2.88523 z m 177.10264,-2.35034 c -1.68483,-1.49947 -29.47105,-12.672289 -34.55556,-13.894772 -20.925,-5.031058 -24.84857,-5.599077 -37.60735,-5.444451 l -13.72598,0.166347 13.51509,1.631229 c 8.82265,1.064865 15.07226,2.568482 18,4.330689 2.74757,1.653759 8.10041,3.026172 13.81824,3.54286 5.13334,0.463869 15.93334,2.886966 24,5.38466 14.2532,4.413238 17.70486,5.306288 16.55556,4.283438 z M 215.80645,85.229159 c -0.48889,-0.488888 -1.28889,-0.488888 -1.77778,0 -0.48889,0.488889 -0.0889,0.888889 0.88889,0.888889 0.97778,0 1.37778,-0.4 0.88889,-0.888889 z m 4.44444,-1.111111 c 0,-0.366666 -0.3,-0.666666 -0.66666,-0.666666 -0.36667,0 -0.66667,0.3 -0.66667,0.666666 0,0.366667 0.3,0.666667 0.66667,0.666667 0.36666,0 0.66666,-0.3 0.66666,-0.666667 z m 2.66667,-1.333333 c 0,-0.366667 -0.3,-0.666667 -0.66667,-0.666667 -0.36666,0 -0.66666,0.3 -0.66666,0.666667 0,0.366667 0.3,0.666667 0.66666,0.666667 0.36667,0 0.66667,-0.3 0.66667,-0.666667 z M 333.33422,565.20725 c 0.9625,-0.38516 2.1125,-0.3378 2.55556,0.10526 0.44305,0.44306 -0.34445,0.75819 -1.75,0.70029 -1.55326,-0.064 -1.8692,-0.37992 -0.80556,-0.80555 z m 5.58333,-1.72517 c 0,-0.57915 1.2,-1.3668 2.66667,-1.75035 1.46667,-0.38354 2.66667,-0.2235 2.66667,0.35565 0,0.57915 -1.2,1.36681 -2.66667,1.75035 -1.46667,0.38354 -2.66667,0.2235 -2.66667,-0.35565 z m 72,0.63599 c 0,-0.36667 0.3,-0.66667 0.66667,-0.66667 0.36667,0 0.66667,0.3 0.66667,0.66667 0,0.36666 -0.3,0.66666 -0.66667,0.66666 -0.36667,0 -0.66667,-0.3 -0.66667,-0.66666 z m -64,-4.66667 c 0,-0.73333 0.6,-1.33333 1.33334,-1.33333 0.73333,0 1.33333,0.6 1.33333,1.33333 0,0.73333 -0.6,1.33333 -1.33333,1.33333 -0.73334,0 -1.33334,-0.6 -1.33334,-1.33333 z m -30.66666,-4 c 0,-0.73333 0.56459,-1.33333 1.25464,-1.33333 0.69006,0 1.62547,0.6 2.07869,1.33333 0.45323,0.73333 -0.11136,1.33333 -1.25464,1.33333 -1.14328,0 -2.07869,-0.6 -2.07869,-1.33333 z m 40,0 c 1.1,-0.71088 2.6,-1.2925 3.33333,-1.2925 0.73333,0 0.43333,0.58162 -0.66667,1.2925 -1.1,0.71087 -2.6,1.2925 -3.33333,1.2925 -0.73333,0 -0.43333,-0.58163 0.66667,-1.2925 z m 51.11111,0.44444 c 0.48889,-0.48889 1.28889,-0.48889 1.77777,0 0.48889,0.48889 0.0889,0.88889 -0.88888,0.88889 -0.97778,0 -1.37778,-0.4 -0.88889,-0.88889 z m -164.44444,-1.11111 c 0,-0.36666 0.3,-0.66666 0.66666,-0.66666 0.36667,0 0.66667,0.3 0.66667,0.66666 0,0.36667 -0.3,0.66667 -0.66667,0.66667 -0.36666,0 -0.66666,-0.3 -0.66666,-0.66667 z m 82.66666,-1.96315 c 0,-1.80741 2.36946,-2.92976 3.23355,-1.53164 0.41312,0.66845 -0.14542,1.55941 -1.24121,1.9799 -1.09578,0.42049 -1.99234,0.21877 -1.99234,-0.44826 z m 6.66667,0.62982 c 0,-0.36667 0.3,-0.66667 0.66666,-0.66667 0.36667,0 0.66667,0.3 0.66667,0.66667 0,0.36667 -0.3,0.66667 -0.66667,0.66667 -0.36666,0 -0.66666,-0.3 -0.66666,-0.66667 z m -34,-7.33333 c 0.45322,-0.73334 1.83863,-1.32415 3.07869,-1.31292 1.94303,0.0176 1.97823,0.19905 0.25464,1.31292 -2.61116,1.68746 -4.37624,1.68746 -3.33333,0 z m 16.82997,-6.44777 c 4.12316,-1.95373 8.32316,-4.22324 9.33334,-5.04336 2.069,-1.67972 11.52704,-2.2698 9.68604,-0.6043 -1.62005,1.46561 -23.03599,9.45636 -24.96327,9.31433 -0.85401,-0.0629 1.82074,-1.71293 5.94389,-3.66667 z m 18.50336,-9.55224 c 0,-0.73333 0.63541,-1.33333 1.41202,-1.33333 0.77662,0 1.04121,0.6 0.58798,1.33333 -0.45322,0.73334 -1.08863,1.33334 -1.41202,1.33334 -0.32339,0 -0.58798,-0.6 -0.58798,-1.33334 z m 82.66667,-0.66666 c 0,-0.36667 0.3,-0.66667 0.66666,-0.66667 0.36667,0 0.66667,0.3 0.66667,0.66667 0,0.36666 -0.3,0.66666 -0.66667,0.66666 -0.36666,0 -0.66666,-0.3 -0.66666,-0.66666 z m 5.33333,-1.8064 c 0,-0.6125 1.2,-2.19962 2.66667,-3.52694 1.46666,-1.32731 2.66666,-1.85365 2.66666,-1.16963 0,0.68401 -1.2,2.27113 -2.66666,3.52693 -1.46667,1.2558 -2.66667,1.78214 -2.66667,1.16964 z m 7.33333,-4.1936 c 0.45323,-0.73334 1.08864,-1.33334 1.41202,-1.33334 0.32339,0 0.58798,0.6 0.58798,1.33334 0,0.73333 -0.63541,1.33333 -1.41202,1.33333 -0.77661,0 -1.0412,-0.6 -0.58798,-1.33333 z m -90.74516,-1.92645 c 1.4235,-1.14045 3.1735,-2.07355 3.88889,-2.07355 1.69406,0 0.93765,0.61586 -3.14373,2.55961 -3.14302,1.49686 -3.18556,1.46911 -0.74516,-0.48606 z m 9.42127,0.60839 c -0.46712,-0.75582 0.0681,-0.97935 1.25464,-0.52402 2.30989,0.88639 2.73252,1.84208 0.81461,1.84208 -0.69005,0 -1.62122,-0.59313 -2.06925,-1.31806 z m 83.67853,-0.89121 c -1.06217,-0.42956 -0.28505,-1.81004 2.19248,-3.89474 4.81186,-4.04892 6.68679,-4.19114 3.3262,-0.2523 -2.13906,2.50711 -2.1666,2.68758 -0.17443,1.14333 1.30105,-1.00853 2.78368,-1.41557 3.29472,-0.90453 1.47216,1.47217 -2.73372,3.47094 -5.49391,2.61089 -1.6296,-0.50777 -2.1826,-0.265 -1.58798,0.69711 0.98111,1.58748 0.93143,1.60663 -1.55708,0.60024 z M 316.362,512.29867 c 2.68817,-2.35191 7.06275,-3.7572 5.3923,-1.73223 -1.00646,1.22006 -2.75646,2.21829 -3.88889,2.21829 -1.13243,0 -1.80897,-0.21873 -1.50341,-0.48606 z m 21.22222,-1.51394 c 0,-0.36667 0.3,-0.66667 0.66667,-0.66667 0.36666,0 0.66666,0.3 0.66666,0.66667 0,0.36667 -0.3,0.66667 -0.66666,0.66667 -0.36667,0 -0.66667,-0.3 -0.66667,-0.66667 z m 14.66667,0 c 0,-0.36667 0.3,-0.66667 0.66666,-0.66667 0.36667,0 0.66667,0.3 0.66667,0.66667 0,0.36667 -0.3,0.66667 -0.66667,0.66667 -0.36666,0 -0.66666,-0.3 -0.66666,-0.66667 z m -20.62383,-6.6226 c 3.69023,-1.68893 7.5137,-4.03977 8.49659,-5.22409 2.17761,-2.62386 4.30557,-2.83613 3.3453,-0.33371 -0.77275,2.01375 -14.0336,8.91051 -16.8008,8.73782 -0.96283,-0.0601 1.26868,-1.49109 4.95891,-3.18002 z m 120.62382,2.6226 c 0,-0.36667 0.3,-0.66667 0.66667,-0.66667 0.36667,0 0.66667,0.3 0.66667,0.66667 0,0.36667 -0.3,0.66667 -0.66667,0.66667 -0.36667,0 -0.66667,-0.3 -0.66667,-0.66667 z m -74.66666,-2.66667 c 0,-0.36666 0.3,-0.66666 0.66667,-0.66666 0.36666,0 0.66666,0.3 0.66666,0.66666 0,0.36667 -0.3,0.66667 -0.66666,0.66667 -0.36667,0 -0.66667,-0.3 -0.66667,-0.66667 z m -37.33333,-9.33333 c 0,-0.36667 0.3,-0.66667 0.66666,-0.66667 0.36667,0 0.66667,0.3 0.66667,0.66667 0,0.36667 -0.3,0.66667 -0.66667,0.66667 -0.36666,0 -0.66666,-0.3 -0.66666,-0.66667 z m 25.33333,-21.33333 c 0,-0.36667 0.3,-0.66667 0.66667,-0.66667 0.36666,0 0.66666,0.3 0.66666,0.66667 0,0.36666 -0.3,0.66666 -0.66666,0.66666 -0.36667,0 -0.66667,-0.3 -0.66667,-0.66666 z M 197.58423,455.37271 c 0,-0.77662 0.6,-1.04121 1.33333,-0.58798 0.73333,0.45322 1.33333,1.08863 1.33333,1.41202 0,0.32339 -0.6,0.58798 -1.33333,0.58798 -0.73333,0 -1.33333,-0.63541 -1.33333,-1.41202 z m 8,0.74535 c 0,-0.36666 0.3,-0.66666 0.66666,-0.66666 0.36667,0 0.66667,0.3 0.66667,0.66666 0,0.36667 -0.3,0.66667 -0.66667,0.66667 -0.36666,0 -0.66666,-0.3 -0.66666,-0.66667 z m -44.8889,-9.55555 c 0.48889,-0.48889 1.28889,-0.48889 1.77778,0 0.48889,0.48889 0.0889,0.88889 -0.88889,0.88889 -0.97778,0 -1.37778,-0.4 -0.88889,-0.88889 z m 238.22222,-2.44445 c 0,-0.36666 0.3,-0.66666 0.66667,-0.66666 0.36667,0 0.66667,0.3 0.66667,0.66666 0,0.36667 -0.3,0.66667 -0.66667,0.66667 -0.36667,0 -0.66667,-0.3 -0.66667,-0.66667 z m -232.88889,-6.88889 c 0.48889,-0.48889 1.28889,-0.48889 1.77778,0 0.48889,0.48889 0.0889,0.88889 -0.88889,0.88889 -0.97778,0 -1.37778,-0.4 -0.88889,-0.88889 z m -26.55563,-7.83342 c -4.86081,-4.39557 -4.94516,-4.58952 -1.219,-2.80317 4.30066,2.06177 9.9339,7.52548 7.75898,7.52548 -0.72481,0 -3.6678,-2.12504 -6.53998,-4.72231 z m 19.77785,3.83927 c -1.84356,-0.7439 -2.29136,-3.11696 -0.58817,-3.11696 0.59317,0 2.24317,0.88092 3.66667,1.9576 2.63211,1.99082 0.74415,2.70183 -3.0785,1.15936 z M 26.917552,424.11806 c 0,-0.36667 0.3,-0.66667 0.666667,-0.66667 0.366667,0 0.666667,0.3 0.666667,0.66667 0,0.36667 -0.3,0.66667 -0.666667,0.66667 -0.366667,0 -0.666667,-0.3 -0.666667,-0.66667 z M 147.61545,398.81454 c -2.91615,-2.4952 -4.86615,-4.97267 -4.33333,-5.50549 0.53282,-0.53282 1.11876,-0.71215 1.3021,-0.3985 0.18333,0.31364 2.40103,2.81364 4.92822,5.55555 5.68213,6.16491 5.03884,6.28307 -1.89699,0.34844 z m -11.39131,1.2713 c -2.45107,-2.95337 -1.05631,-3.29289 1.69341,-0.41222 1.28333,1.34444 1.8068,2.44444 1.16326,2.44444 -0.64354,0 -1.92904,-0.9145 -2.85667,-2.03222 z m -17.30659,-1.30111 c 0,-0.36667 0.3,-0.66667 0.66667,-0.66667 0.36667,0 0.66667,0.3 0.66667,0.66667 0,0.36666 -0.3,0.66666 -0.66667,0.66666 -0.36667,0 -0.66667,-0.3 -0.66667,-0.66666 z m 329.77778,-4.22223 c 0.48889,-0.48888 1.28889,-0.48888 1.77778,0 0.48889,0.48889 0.0889,0.88889 -0.88889,0.88889 -0.97778,0 -1.37778,-0.4 -0.88889,-0.88889 z M 139.5774,388.3179 c -6.37512,-8.65145 -11.59871,-17.03876 -10.99049,-17.64698 0.40715,-0.40714 2.7085,2.1519 5.11412,5.68677 2.40562,3.53487 4.78259,6.72704 5.28215,7.0937 0.97169,0.7132 3.07094,6.66667 2.35074,6.66667 -0.23651,0 -1.02694,-0.81007 -1.75652,-1.80016 z m -28.65985,-1.53317 c 0,-0.36667 0.3,-0.66667 0.66667,-0.66667 0.36667,0 0.66667,0.3 0.66667,0.66667 0,0.36666 -0.3,0.66666 -0.66667,0.66666 -0.36667,0 -0.66667,-0.3 -0.66667,-0.66666 z m 445.33333,-3.33334 c 0,-0.73333 0.63541,-1.33333 1.41202,-1.33333 0.77662,0 1.04121,0.6 0.58798,1.33333 -0.45322,0.73334 -1.08863,1.33334 -1.41202,1.33334 -0.32339,0 -0.58798,-0.6 -0.58798,-1.33334 z m 1.42705,-4.07849 c 0.19063,-3.90879 2.04542,-7.2194 2.85814,-5.1015 0.41332,1.0771 -0.0818,3.09791 -1.10018,4.49069 -1.2948,1.77074 -1.82349,1.95443 -1.75796,0.61081 z m 3.90628,-7.92151 c 0,-0.97778 0.4,-1.37778 0.88889,-0.88889 0.48889,0.48889 0.48889,1.28889 0,1.77778 -0.48889,0.48889 -0.88889,0.0889 -0.88889,-0.88889 z M 460.25088,356.78473 c 0,-0.97778 0.4,-1.37778 0.88889,-0.88889 0.48889,0.48889 0.48889,1.28889 0,1.77777 -0.48889,0.48889 -0.88889,0.0889 -0.88889,-0.88888 z m -343.06355,-7.11112 c -0.37521,-0.97777 0.10339,-1.77777 1.06356,-1.77777 0.96016,0 1.43876,0.8 1.06356,1.77777 -0.37521,0.97778 -0.85381,1.77778 -1.06356,1.77778 -0.20975,0 -0.68836,-0.8 -1.06356,-1.77778 z m 344.39689,0.44445 c 0,-0.97778 0.4,-1.37778 0.88889,-0.88889 0.48888,0.48889 0.48888,1.28889 0,1.77778 -0.48889,0.48889 -0.88889,0.0889 -0.88889,-0.88889 z M 567.8526,336.78472 c 0.40721,-6.23333 0.9634,-11.58333 1.23599,-11.88888 0.93897,-1.05252 0.17823,15.22921 -0.89812,19.22222 -0.64354,2.38736 -0.77975,-0.56913 -0.33787,-7.33334 z m -450.26838,8 c 0,-0.97777 0.4,-1.37777 0.88889,-0.88888 0.48889,0.48888 0.48889,1.28889 0,1.77777 -0.48889,0.48889 -0.88889,0.0889 -0.88889,-0.88889 z m 451.99999,-22.66666 c 0,-0.97778 0.4,-1.37778 0.88889,-0.88889 0.48889,0.48889 0.48889,1.28889 0,1.77778 -0.48889,0.48889 -0.88889,0.0889 -0.88889,-0.88889 z m 0,-4 c 0,-0.97778 0.4,-1.37778 0.88889,-0.88889 0.48889,0.48889 0.48889,1.28889 0,1.77778 -0.48889,0.48889 -0.88889,0.0889 -0.88889,-0.88889 z m 0.39956,-9.33334 c 0,-4.03333 0.24995,-5.68333 0.55545,-3.66666 0.3055,2.01666 0.3055,5.31666 0,7.33333 -0.3055,2.01667 -0.55545,0.36667 -0.55545,-3.66667 z M 111.02282,298.67361 c 0.064,-1.55326 0.37992,-1.8692 0.80555,-0.80555 0.38516,0.9625 0.33779,2.1125 -0.10526,2.55555 -0.44306,0.44306 -0.75819,-0.34444 -0.70029,-1.75 z m 458.56139,1.44445 c 0,-0.36667 0.3,-0.66667 0.66667,-0.66667 0.36667,0 0.66667,0.3 0.66667,0.66667 0,0.36666 -0.3,0.66666 -0.66667,0.66666 -0.36667,0 -0.66667,-0.3 -0.66667,-0.66666 z m 0.25993,-5.33334 c 0.0272,-2.2 0.326,-2.93858 0.66406,-1.64129 0.33806,1.29729 0.31583,3.09729 -0.0494,4 -0.36524,0.90271 -0.64183,-0.15871 -0.61466,-2.35871 z m -0.15466,-6.77777 c 0.064,-1.55326 0.37992,-1.8692 0.80555,-0.80556 0.38516,0.9625 0.33779,2.1125 -0.10526,2.55556 -0.44306,0.44305 -0.75819,-0.34445 -0.70029,-1.75 z M 6.9175535,286.92826 c 0,-1.26551 -0.6,-1.9301 -1.333333,-1.47687 -0.819469,0.50646 -1.263354,-1.3902 -1.151757,-4.92131 0.105786,-3.34727 0.407202,-4.35404 0.722132,-2.41202 0.297306,1.83333 1.216501,4.68243 2.042655,6.33132 0.826154,1.6489 1.101195,3.3989 0.611201,3.88889 -0.489994,0.48999 -0.890898,-0.14451 -0.890898,-1.41001 z m 457.3333265,-0.8102 c 0,-0.73334 0.6,-1.33334 1.33334,-1.33334 0.73333,0 1.33333,0.6 1.33333,1.33334 0,0.73333 -0.6,1.33333 -1.33333,1.33333 -0.73334,0 -1.33334,-0.6 -1.33334,-1.33333 z M 8.3561505,278.67361 c 0.06398,-1.55326 0.37992,-1.8692 0.805555,-0.80555 0.385161,0.9625 0.337792,2.1125 -0.105263,2.55555 -0.443056,0.44306 -0.758187,-0.34444 -0.700292,-1.75 z m -2.63805,-5.97734 c -0.152873,-2.38473 2.26712,-16.57644 3.509032,-20.57821 0.7641458,-2.46229 0.9015465,-2.4112 1.7927565,0.66666 1.520671,5.25175 1.374723,11.7538 -0.286883,12.78073 -1.0944617,0.67641 -1.2472595,-0.51044 -0.547754,-4.25465 1.568429,-8.39525 -0.4181037,-4.43012 -2.4610505,4.91227 -1.029722,4.70891 -1.932467,7.62185 -2.006101,6.4732 z m 563.8661095,0.0885 c 0,-0.97778 0.4,-1.37778 0.88889,-0.88889 0.48889,0.48889 0.48889,1.28889 0,1.77778 -0.48889,0.48889 -0.88889,0.0889 -0.88889,-0.88889 z m -103.07532,-6.33333 c -0.39575,-2.01667 -0.16569,-4.23667 0.51123,-4.93333 0.7586,-0.78073 1.23076,0.62593 1.23076,3.66666 0,5.83882 -0.73928,6.37638 -1.74199,1.26667 z m 101.74199,3 c 0,-0.36667 0.3,-0.66667 0.66667,-0.66667 0.36666,0 0.66666,0.3 0.66666,0.66667 0,0.36667 -0.3,0.66667 -0.66666,0.66667 -0.36667,0 -0.66667,-0.3 -0.66667,-0.66667 z m 0.10526,-4.11111 c 0.064,-1.55326 0.37992,-1.8692 0.80556,-0.80556 0.38516,0.9625 0.33779,2.1125 -0.10526,2.55556 -0.44306,0.44305 -0.75819,-0.34445 -0.7003,-1.75 z m -104.10526,-5.22222 c 0,-0.36667 0.3,-0.66667 0.66667,-0.66667 0.36667,0 0.66667,0.3 0.66667,0.66667 0,0.36666 -0.3,0.66666 -0.66667,0.66666 -0.36667,0 -0.66667,-0.3 -0.66667,-0.66666 z m 102.58911,-10.67323 c -0.92791,-6.23694 -1.29005,-11.73694 -0.80477,-12.22222 0.48528,-0.48529 0.92823,0.56767 0.98434,2.33989 0.0561,1.77222 0.28009,4.12222 0.49773,5.22222 1.18949,6.01179 2.22793,16 1.66347,16 -0.35952,0 -1.41287,-5.10295 -2.34077,-11.33989 z M 9.5842203,248.11805 c 0,-0.36666 0.3,-0.66666 0.6666657,-0.66666 0.366667,0 0.666667,0.3 0.666667,0.66666 0,0.36667 -0.3,0.66667 -0.666667,0.66667 -0.3666657,0 -0.6666657,-0.3 -0.6666657,-0.66667 z M 562.54482,244.34234 c -1.48569,-3.77743 -1.24349,-5.70717 0.49777,-3.96591 0.8021,0.8021 1.23438,2.5721 0.9606,3.93333 -0.48009,2.3871 -0.53186,2.38826 -1.45837,0.0326 z m -1.29394,-8 c -1.57509,-3.84698 -1.27772,-8.36867 0.43757,-6.65338 0.79066,0.79066 1.24066,3.16066 1,5.26666 -0.35914,3.14278 -0.61681,3.39134 -1.43757,1.38672 z m 3,-2.89095 c 0,-0.36667 0.3,-0.66667 0.66667,-0.66667 0.36666,0 0.66666,0.3 0.66666,0.66667 0,0.36666 -0.3,0.66666 -0.66666,0.66666 -0.36667,0 -0.66667,-0.3 -0.66667,-0.66666 z m -5.75546,-8.72916 c -1.59621,-5.9682 -1.1981,-7.4625 1.31783,-4.94656 1.71655,1.71654 1.92186,2.91745 0.89301,5.22322 -1.33604,2.99417 -1.33604,2.99417 -2.21084,-0.27666 z m -115.57787,0.72916 c 0,-0.36667 0.3,-0.66667 0.66667,-0.66667 0.36666,0 0.66666,0.3 0.66666,0.66667 0,0.36666 -0.3,0.66666 -0.66666,0.66666 -0.36667,0 -0.66667,-0.3 -0.66667,-0.66666 z m -323.32191,-7.33334 c 1.57915,-5.38327 3.48485,-7.92277 2.50142,-3.33333 -0.47142,2.2 -1.4471,4.6 -2.16818,5.33333 -0.86133,0.87597 -0.97564,0.18993 -0.33324,-2 z m -99.344754,0 c 0,-0.97777 0.4,-1.37777 0.888889,-0.88888 0.488889,0.48888 0.488889,1.28888 0,1.77777 -0.488889,0.48889 -0.888889,0.0889 -0.888889,-0.88889 z m 534.666664,-9.33333 c 0,-0.97778 0.4,-1.37778 0.88889,-0.88889 0.48888,0.48889 0.48888,1.28889 0,1.77778 -0.48889,0.48889 -0.88889,0.0889 -0.88889,-0.88889 z m -420,-14 c 0,-0.36667 0.3,-0.66667 0.66667,-0.66667 0.36666,0 0.66666,0.3 0.66666,0.66667 0,0.36667 -0.3,0.66667 -0.66666,0.66667 -0.36667,0 -0.66667,-0.3 -0.66667,-0.66667 z m 14.66667,-2.66667 c 0,-0.36666 0.3,-0.66666 0.66666,-0.66666 0.36667,0 0.66667,0.3 0.66667,0.66666 0,0.36667 -0.3,0.66667 -0.66667,0.66667 -0.36666,0 -0.66666,-0.3 -0.66666,-0.66667 z m -13.33334,-1.33333 c 0,-0.36667 0.3,-0.66667 0.66667,-0.66667 0.36667,0 0.66667,0.3 0.66667,0.66667 0,0.36667 -0.3,0.66667 -0.66667,0.66667 -0.36667,0 -0.66667,-0.3 -0.66667,-0.66667 z m 288.61185,-10.08871 c -0.48338,-0.78212 -0.59291,-1.708 -0.24341,-2.0575 0.3495,-0.34951 0.99075,0.29041 1.425,1.42204 0.90158,2.34948 0.13314,2.76274 -1.18159,0.63546 z m 14.05482,0.01 c 0,-0.77661 0.6,-1.0412 1.33333,-0.58798 0.73334,0.45323 1.33334,1.08864 1.33334,1.41203 0,0.32338 -0.6,0.58797 -1.33334,0.58797 -0.73333,0 -1.33333,-0.63541 -1.33333,-1.41202 z m -17.33333,-6.58798 c 0,-0.97778 0.4,-1.37778 0.88889,-0.88889 0.48889,0.48889 0.48889,1.28889 0,1.77778 -0.48889,0.48889 -0.88889,0.0889 -0.88889,-0.88889 z M 85.584217,165.54816 c 0,-1.04678 1.387572,-2.99678 3.083492,-4.33333 1.695921,-1.33656 3.777676,-3.63011 4.626118,-5.09678 1.17699,-2.0346 1.55224,-2.1687 1.58318,-0.56575 0.0223,1.1555 -1.45946,3.51009 -3.29279,5.23242 -1.833333,1.72233 -3.333333,3.92691 -3.333333,4.89908 0,0.97217 -0.6,1.76759 -1.333334,1.76759 -0.733333,0 -1.333333,-0.85646 -1.333333,-1.90323 z m -9.764209,-2.62977 c -0.784873,-2.04535 10.425107,-22.17205 13.292988,-23.86659 0.992505,-0.58644 1.804554,-1.66526 1.804554,-2.39738 0,-2.23643 8.668596,-14.99694 12.59231,-18.53637 2.03238,-1.83333 8.58054,-8.04441 14.55147,-13.8024 19.67501,-18.973355 21.48044,-20.553624 26.18955,-22.923289 2.56667,-1.291568 8.87183,-5.106658 14.01146,-8.477977 11.68532,-7.664926 21.8771,-12.707675 23.07437,-11.416863 0.50279,0.542083 0.24565,1.226303 -0.57142,1.520488 -8.27543,2.979525 -33.36238,19.97013 -41.98241,28.433369 -5.60189,5.5 -12.51328,12.100002 -15.35863,14.666672 -2.84535,2.56667 -9.82336,9.63109 -15.5067,15.69872 -8.303644,8.86512 -15.224246,14.40425 -8.666663,6.93666 0.916663,-1.04388 0.403279,-0.84927 -1.14086,0.43246 -1.54413,1.28172 -3.94413,4.5658 -5.333329,7.29795 -1.389198,2.73215 -3.875814,6.82418 -5.525814,9.0934 -1.65,2.26922 -3,4.54431 -3,5.05575 0,0.51144 -1.2,2.21795 -2.666667,3.79223 -1.466666,1.57428 -2.666666,4.21378 -2.666666,5.86556 0,3.53288 -2.074779,5.29289 -3.097543,2.62761 z m 1.764209,-1.467 c 0,-0.36667 -0.3,-0.66667 -0.666666,-0.66667 -0.366667,0 -0.666667,0.3 -0.666667,0.66667 0,0.36666 0.3,0.66666 0.666667,0.66666 0.366666,0 0.666666,-0.3 0.666666,-0.66666 z m 26.627073,-38.33334 c 3.12856,-4.33333 3.12856,-4.33333 -0.41592,-1.10091 -1.94947,1.77783 -3.54448,3.72783 -3.54448,4.33333 0,1.85136 0.70614,1.27502 3.9604,-3.23242 z m -2.62707,31.66667 c 0,-0.36667 0.3,-0.66667 0.66667,-0.66667 0.36666,0 0.66666,0.3 0.66666,0.66667 0,0.36667 -0.3,0.66667 -0.66666,0.66667 -0.36667,0 -0.66667,-0.3 -0.66667,-0.66667 z m -4.482173,-4 c 0.42211,-1.1 1.00328,-2 1.29149,-2 0.28821,0 0.52401,0.9 0.52401,2 0,1.1 -0.58117,2 -1.29148,2 -0.71032,0 -0.94613,-0.9 -0.52402,-2 z m 435.148833,-6 c 0,-0.97778 0.4,-1.37778 0.88889,-0.88889 0.48889,0.48889 0.48889,1.28889 0,1.77778 -0.48889,0.48889 -0.88889,0.0889 -0.88889,-0.88889 z m -418.66666,-1.33334 c 0,-0.73333 0.6,-1.33333 1.33333,-1.33333 0.73334,0 1.33334,0.6 1.33334,1.33333 0,0.73334 -0.6,1.33334 -1.33334,1.33334 -0.73333,0 -1.33333,-0.6 -1.33333,-1.33334 z m 366.66666,-0.66666 c 0,-0.36667 0.3,-0.66667 0.66667,-0.66667 0.36667,0 0.66667,0.3 0.66667,0.66667 0,0.36666 -0.3,0.66666 -0.66667,0.66666 -0.36667,0 -0.66667,-0.3 -0.66667,-0.66666 z m -373.99999,-3.33334 c 0.45322,-0.73333 1.08863,-1.33333 1.41202,-1.33333 0.32339,0 0.58798,0.6 0.58798,1.33333 0,0.73334 -0.63541,1.33334 -1.41203,1.33334 -0.77661,0 -1.0412,-0.6 -0.58797,-1.33334 z m 283.33333,-0.66666 c 0,-0.36667 0.3,-0.66667 0.66667,-0.66667 0.36666,0 0.66666,0.3 0.66666,0.66667 0,0.36666 -0.3,0.66666 -0.66666,0.66666 -0.36667,0 -0.66667,-0.3 -0.66667,-0.66666 z m -277.33333,-1.33334 c 0,-0.36666 0.3,-0.66666 0.66666,-0.66666 0.36667,0 0.66667,0.3 0.66667,0.66666 0,0.36667 -0.3,0.66667 -0.66667,0.66667 -0.36666,0 -0.66666,-0.3 -0.66666,-0.66667 z m 72,-1.02742 c 0,-1.11133 0.9,-2.36597 2,-2.78808 1.1,-0.42211 2,-0.25977 2,0.36076 0,0.62052 -0.9,1.87516 -2,2.78808 -1.62814,1.35124 -2,1.28416 -2,-0.36076 z m -74.63925,-0.59233 c 0.0548,-2.0934 11.74706,-14.35211 12.7485,-13.36617 0.56651,0.55775 -0.12632,2.12724 -1.53962,3.48777 -1.4133,1.36053 -3.46963,3.80272 -4.56963,5.4271 -2.13073,3.14645 -6.68505,6.19991 -6.63925,4.4513 z m 8.63925,-3.04691 c 0.45322,-0.73334 1.12404,-1.33334 1.49071,-1.33334 0.36666,0 0.29584,0.6 -0.15738,1.33334 -0.45323,0.73333 -1.12405,1.33333 -1.49071,1.33333 -0.36667,0 -0.29585,-0.6 0.15738,-1.33333 z m 133.33333,-1.4063 c 2.93334,-1.38808 6.23334,-2.52633 7.33334,-2.52945 1.1,-0.003 -0.61552,1.18114 -3.81227,2.6317 -3.19675,1.45056 -6.49675,2.58881 -7.33334,2.52945 -0.83658,-0.0594 0.87894,-1.24363 3.81227,-2.6317 z m -144.66667,0.73963 c 0,-0.36667 0.3,-0.66667 0.66667,-0.66667 0.36667,0 0.66667,0.3 0.66667,0.66667 0,0.36667 -0.3,0.66667 -0.66667,0.66667 -0.36667,0 -0.66667,-0.3 -0.66667,-0.66667 z m 92.00001,0 c 0,-0.36667 0.3,-0.66667 0.66667,-0.66667 0.36666,0 0.66666,0.3 0.66666,0.66667 0,0.36667 -0.3,0.66667 -0.66666,0.66667 -0.36667,0 -0.66667,-0.3 -0.66667,-0.66667 z m -5.13965,-2.65135 c 0.27698,-1.45825 1.69672,-2.87513 3.15496,-3.14863 1.45825,-0.2735 3.13117,-1.33039 3.71761,-2.34864 1.67648,-2.91094 3.59654,-2.16555 3.31094,1.28533 -0.19256,2.32669 -0.88867,2.97221 -2.69557,2.4997 -1.33979,-0.35036 -3.68598,0.48812 -5.21376,1.86328 -2.72296,2.45096 -2.76785,2.44798 -2.27418,-0.15104 z m -81.52702,-2.68198 c 0,-0.36667 0.3,-0.66667 0.66666,-0.66667 0.36667,0 0.66667,0.3 0.66667,0.66667 0,0.36666 -0.3,0.66666 -0.66667,0.66666 -0.36666,0 -0.66666,-0.3 -0.66666,-0.66666 z m 132,0 c 0,-0.36667 0.3,-0.66667 0.66667,-0.66667 0.36666,0 0.66666,0.3 0.66666,0.66667 0,0.36666 -0.3,0.66666 -0.66666,0.66666 -0.36667,0 -0.66667,-0.3 -0.66667,-0.66666 z M 78.917551,124.11805 c 0,-0.36667 0.3,-0.66667 0.666666,-0.66667 0.366667,0 0.666667,0.3 0.666667,0.66667 0,0.36667 -0.3,0.66667 -0.666667,0.66667 -0.366666,0 -0.666666,-0.3 -0.666666,-0.66667 z m 427.999999,-1.33333 c 0,-0.36667 0.3,-0.66667 0.66667,-0.66667 0.36666,0 0.66666,0.3 0.66666,0.66667 0,0.36666 -0.3,0.66666 -0.66666,0.66666 -0.36667,0 -0.66667,-0.3 -0.66667,-0.66666 z m -381.14521,-3.8179 c 0.94108,-2.09984 1.95339,-3.09091 2.24956,-2.20238 0.29618,0.88853 -0.47379,2.60659 -1.71106,3.8179 -2.10584,2.06167 -2.14024,1.95846 -0.5385,-1.61552 z m 53.14521,0.7394 c 0,-2.42327 3.67923,-5.94379 5.21793,-4.99283 1.21674,0.75198 1.04893,1.63647 -0.67106,3.53703 -2.38104,2.63103 -4.54687,3.32448 -4.54687,1.4558 z m 178.66667,-0.25484 c -2.65053,-1.7129 0.68052,-1.7129 4.66667,0 2.66666,1.14591 2.66666,1.14591 0,1.21921 -1.46667,0.0403 -3.56667,-0.50833 -4.66667,-1.21921 z m -271.475649,-3.2983 c 0.159643,-1.08772 1.606972,-3.37925 3.216286,-5.09229 1.609315,-1.71303 2.926026,-3.85459 2.926026,-4.75901 0,-2.30901 6.734724,-8.299052 8.266447,-7.352392 1.78506,1.103232 7.67901,-4.75537 6.87968,-6.83841 -0.36369,-0.94776 0.0816,-2.18231 0.98956,-2.74346 1.15184,-0.71187 1.39347,-0.34962 0.79941,1.19847 -0.46827,1.2203 -0.27023,2.21873 0.44009,2.21873 0.71031,0 1.29148,-0.6 1.29148,-1.33334 0,-0.73333 0.59624,-1.33333 1.32497,-1.33333 1.5337,0 1.06784,4.76763 -0.61549,6.29897 -0.62535,0.5689 -0.70541,0.28436 -0.17789,-0.6323 0.52752,-0.91667 0.41671,-1.66667 -0.24625,-1.66667 -2.02839,0 -5.20904,4.44714 -6.19849,8.666672 -1.66355,7.09417 -11.420183,15.61124 -11.420183,9.96926 0,-2.56829 -0.15901,-2.59322 -3.321885,-0.52082 -1.827037,1.19712 -3.01725,2.66949 -2.644918,3.27194 0.372333,0.60244 0.119852,1.43967 -0.561068,1.8605 -0.68092,0.42084 -1.107419,-0.1248 -0.947775,-1.21252 z m 16.364539,-14.92392 c -0.48889,-0.48889 -1.28889,-0.48889 -1.77778,0 -0.48889,0.48889 -0.0889,0.88889 0.88889,0.88889 0.97778,0 1.37778,-0.4 0.88889,-0.88889 z m 93.77778,15.55556 c 0,-0.73334 0.63541,-1.33334 1.41203,-1.33334 0.77661,0 1.0412,0.6 0.58797,1.33334 -0.45322,0.73333 -1.08863,1.33333 -1.41202,1.33333 -0.32339,0 -0.58798,-0.6 -0.58798,-1.33333 z m 141.33333,-2.66667 c 0,-0.97778 0.4,-1.37778 0.88889,-0.88889 0.48889,0.48889 0.48889,1.28889 0,1.77778 -0.48889,0.48889 -0.88889,0.0889 -0.88889,-0.88889 z m -200.81087,-4.61878 c 0.30335,-2.06684 14.82803,-15.381222 16.77941,-15.381222 0.63068,0 2.24576,-0.40621 3.58907,-0.9027 1.40968,-0.52101 0.55051,0.88843 -2.03195,3.33334 -2.46089,2.32981 -5.18558,4.236032 -6.05486,4.236032 -0.86929,0 -3.78719,2.4 -6.48423,5.33333 -5.34929,5.81796 -6.23051,6.33191 -5.79744,3.38122 z m 115.47754,-2.71455 c 0,-0.36667 0.3,-0.66667 0.66667,-0.66667 0.36666,0 0.66666,0.3 0.66666,0.66667 0,0.36666 -0.3,0.66666 -0.66666,0.66666 -0.36667,0 -0.66667,-0.3 -0.66667,-0.66666 z m -125.33334,-1.33334 c 0,-0.36666 0.3,-0.66666 0.66667,-0.66666 0.36667,0 0.66667,0.3 0.66667,0.66666 0,0.36667 -0.3,0.66667 -0.66667,0.66667 -0.36667,0 -0.66667,-0.3 -0.66667,-0.66667 z m 9.33333,-1.33333 c 0,-0.36667 0.3,-0.66667 0.66667,-0.66667 0.36667,0 0.66667,0.3 0.66667,0.66667 0,0.36667 -0.3,0.66667 -0.66667,0.66667 -0.36667,0 -0.66667,-0.3 -0.66667,-0.66667 z m 309.87268,-2.20601 c -0.58944,-0.95373 -0.36575,-1.17742 0.58798,-0.58798 1.537,0.94992 2.06355,2.12732 0.95137,2.12732 -0.32339,0 -1.0161,-0.6927 -1.53935,-1.53934 z M 435.362,95.895828 c 0.48888,-0.48889 1.28888,-0.48889 1.77777,0 0.48889,0.48889 0.0889,0.88889 -0.88889,0.88889 -0.97777,0 -1.37777,-0.4 -0.88888,-0.88889 z m -3.77778,-1.77778 c -0.45323,-0.73333 -0.18864,-1.33333 0.58798,-1.33333 0.77661,0 1.41202,0.6 1.41202,1.33333 0,0.73333 -0.26459,1.33333 -0.58798,1.33333 -0.32339,0 -0.9588,-0.6 -1.41202,-1.33333 z m 23.33333,-4.09583 c -2.56667,-2.24926 -6.01667,-4.633002 -7.66667,-5.2972 -1.65,-0.664199 -3,-1.87142 -3,-2.682715 0,-1.805116 8.53905,3.290422 14,8.354275 5.45896,5.062 2.48964,4.72852 -3.33333,-0.37436 z m 20,2.68381 c 0,-0.77662 0.6,-1.0412 1.33333,-0.58798 0.73334,0.45323 1.33334,1.08864 1.33334,1.41202 0,0.32339 -0.6,0.58798 -1.33334,0.58798 -0.73333,0 -1.33333,-0.63541 -1.33333,-1.41202 z m -314.66667,-1.25465 c 0,-0.97777 0.4,-1.37777 0.88889,-0.88889 0.48889,0.48889 0.48889,1.28889 0,1.77778 -0.48889,0.48889 -0.88889,0.0889 -0.88889,-0.88889 z m 274.66667,0.66667 c 0,-0.36667 0.3,-0.66667 0.66667,-0.66667 0.36666,0 0.66666,0.3 0.66666,0.66667 0,0.36667 -0.3,0.66667 -0.66666,0.66667 -0.36667,0 -0.66667,-0.3 -0.66667,-0.66667 z m -207.99999,-1.33333 c 0,-0.36667 0.3,-0.66667 0.66667,-0.66667 0.36666,0 0.66666,0.3 0.66666,0.66667 0,0.36666 -0.3,0.66666 -0.66666,0.66666 -0.36667,0 -0.66667,-0.3 -0.66667,-0.66666 z m -114.66667,-4.66667 c 0,-0.977777 0.4,-1.377777 0.88888,-0.888889 0.48889,0.488889 0.48889,1.288889 0,1.777779 -0.48888,0.48889 -0.88888,0.0889 -0.88888,-0.88889 z m 333.44914,-6.417124 c -5.35283,-3.646078 -6.59199,-5.03772 -4.79633,-5.386531 1.33165,-0.258677 2.95935,0.491323 3.61711,1.666667 0.65775,1.175343 2.03264,2.136988 3.05531,2.136988 1.02267,0 3.54285,1.481039 5.60041,3.291199 5.78002,5.085031 0.83959,3.956178 -7.4765,-1.708323 z m 12.49603,3.661749 c -1.43503,-2.321923 0.19936,-2.813654 2.02808,-0.610179 1.05167,1.267178 1.15282,2.032221 0.26869,2.032221 -0.77984,0 -1.81339,-0.639919 -2.29677,-1.422042 z m -18.91162,-2.055956 c 0.97203,-0.972033 -7.21419,-7.188669 -9.46622,-7.188669 -1.58791,0 -4.70531,-3.734297 -5.04403,-6.042191 -0.16571,-1.129022 0.53961,-1.474226 1.94156,-0.950254 4.07421,1.522725 10.2018,5.62528 10.2018,6.830326 0,0.657161 1.4424,2.362825 3.20534,3.790364 3.00325,2.431886 3.04785,2.655962 0.70731,3.554111 -1.37392,0.527222 -2.06951,0.530062 -1.54576,0.0063 z m -7.70022,-9.855336 c -2.2,-1.457002 -4.6,-2.649095 -5.33334,-2.649095 -0.73333,0 0.46667,1.192093 2.66667,2.649095 2.2,1.457003 4.6,2.649096 5.33333,2.649096 0.73334,0 -0.46666,-1.192093 -2.66666,-2.649096 z m 21,7.520117 c -1.65,-0.817186 -3,-1.943515 -3,-2.502955 0,-1.843729 2.21334,-1.06139 4.66666,1.649505 2.6703,2.950646 2.61992,2.976443 -1.66666,0.85345 z m -57,-0.85345 c -0.45323,-0.733333 -0.22405,-1.333333 0.50929,-1.333333 0.73333,0 1.70415,0.6 2.15738,1.333333 0.45322,0.733333 0.22404,1.333333 -0.50929,1.333333 -0.73334,0 -1.70416,-0.6 -2.15738,-1.333333 z m 26,-10 c 0,-0.366667 0.3,-0.666667 0.66667,-0.666667 0.36666,0 0.66666,0.3 0.66666,0.666667 0,0.366666 -0.3,0.666666 -0.66666,0.666666 -0.36667,0 -0.66667,-0.3 -0.66667,-0.666666 z m -188,-1.844492 c 0,-0.647804 1.2,-1.491632 2.66667,-1.875174 3.14876,-0.823419 3.61905,1.068898 0.55762,2.243681 -2.79896,1.074059 -3.22429,1.025448 -3.22429,-0.368507 z m 182,-0.155508 c -0.45323,-0.733334 0.076,-1.333334 1.17595,-1.333334 1.1,0 2.37082,0.6 2.82405,1.333334 0.45322,0.733333 -0.076,1.333333 -1.17596,1.333333 -1.1,0 -2.37082,-0.6 -2.82404,-1.333333 z m -7.05257,-2.050717 c -1.44097,-1.63378 -1.28588,-1.949283 0.95815,-1.949283 1.83211,0 2.43509,0.631419 1.90992,2 -0.91174,2.375951 -0.72488,2.379255 -2.86807,-0.05072 z M 232.76588,55.696808 c 0.46691,-0.755478 2.66633,-1.772766 4.8876,-2.260639 2.22128,-0.487874 8.64408,-2.348716 14.2729,-4.135206 14.60377,-4.63498 48.20329,-8.889518 46.33541,-5.867218 -0.45922,0.743033 -3.34954,1.361731 -6.42292,1.374884 -7.50037,0.0321 -28.61107,3.351882 -33.58798,5.281908 -2.2,0.85315 -7.9,2.436334 -12.66667,3.518186 -4.76666,1.081851 -9.7918,2.303305 -11.16697,2.714342 -1.52585,0.456077 -2.16945,0.212005 -1.65137,-0.626257 z m 19.92946,0.199017 c 0.48888,-0.488889 1.28888,-0.488889 1.77777,0 0.48889,0.488889 0.0889,0.888889 -0.88889,0.888889 -0.97777,0 -1.37777,-0.4 -0.88888,-0.888889 z m 14.22222,-2.444444 c 0,-0.366667 0.3,-0.666667 0.66666,-0.666667 0.36667,0 0.66667,0.3 0.66667,0.666667 0,0.366666 -0.3,0.666666 -0.66667,0.666666 -0.36666,0 -0.66666,-0.3 -0.66666,-0.666666 z m 4.66666,-1.816213 c 3.79883,-1.650175 21.84196,-3.240586 19.33334,-1.704135 -1.1,0.673713 -6.5,1.593388 -12,2.043722 -6.07787,0.497649 -8.9541,0.364459 -7.33334,-0.339587 z m -64.66666,-2.25716 c 0,-0.407021 3.45,-2.246268 7.66667,-4.087215 4.21666,-1.840948 10.06666,-4.479619 13,-5.863715 5.77328,-2.72413 16.49941,-5.421481 22.26782,-5.599798 1.98064,-0.06123 3.94142,-0.998007 4.35728,-2.081734 0.60703,-1.581872 -0.10308,-1.80965 -3.60116,-1.155138 -3.49411,0.653771 -3.87592,0.531838 -1.92736,-0.615514 1.36334,-0.802769 3.99694,-1.008528 6,-0.468772 7.25782,1.955738 17.24016,0.881806 23.31181,-2.507959 3.22839,-1.802392 9.24674,-3.978127 13.37412,-4.834967 9.08291,-1.885605 12.05612,-4.821718 3.75518,-3.708329 -5.61837,0.753582 -9.05134,-1.061288 -4.62221,-2.443569 1.32982,-0.415019 3.46785,-1.315865 4.75118,-2.001881 1.28333,-0.686016 2.33333,-0.746133 2.33333,-0.133593 0,0.612539 1.95,0.88285 4.33334,0.60069 3.91823,-0.463874 4.10981,-0.331881 2,1.377914 -3.68103,2.983102 -2.83845,3.596951 4.93726,3.596951 9.02512,0 13.97931,2.03103 13.10543,5.372729 -0.4829,1.846609 0.2714,2.560727 3.16155,2.993142 2.08766,0.312351 -3.10424,0.736795 -11.53758,0.943209 -10.69696,0.261818 -13.92226,0.672315 -10.66666,1.357587 4.66666,0.98229 4.66666,0.98229 -1,1.157812 -3.11667,0.09654 -5.66667,-0.424478 -5.66667,-1.157812 0,-0.733333 -0.63541,-1.333333 -1.41202,-1.333333 -0.77662,0 -1.08968,0.52156 -0.69571,1.159023 0.39397,0.637462 -3.17307,0.931912 -7.92676,0.654334 -6.22235,-0.363336 -10.87626,0.247614 -16.61649,2.181358 -4.38537,1.477325 -8.43292,2.611822 -8.99454,2.521104 -0.56163,-0.09072 -1.62115,-0.0331 -2.35448,0.128042 -0.73333,0.161142 -3.13333,0.208658 -5.33333,0.105593 -5.34462,-0.250385 -31.55822,7.873719 -40.76082,12.632567 -4.06302,2.101072 -5.23918,2.372994 -5.23918,1.211274 z m 41.33333,-3.926628 c 0,-0.366666 0.3,-0.666666 0.66667,-0.666666 0.36666,0 0.66666,0.3 0.66666,0.666666 0,0.366667 -0.3,0.666667 -0.66666,0.666667 -0.36667,0 -0.66667,-0.3 -0.66667,-0.666667 z m 8.7895,-2.827357 c -0.65955,-1.718767 -0.21149,-1.995196 2.19068,-1.35154 1.6609,0.445033 3.91982,0.826532 5.01982,0.847775 1.77778,0.03433 1.77778,0.182234 0,1.331122 -3.03244,1.959713 -6.28418,1.586597 -7.2105,-0.827357 z m -4.7895,-0.584666 c 0,-0.776612 0.6,-1.041202 1.33333,-0.587977 0.73334,0.453225 1.33334,1.088635 1.33334,1.412023 0,0.323387 -0.6,0.587977 -1.33334,0.587977 -0.73333,0 -1.33333,-0.63541 -1.33333,-1.412023 z m 22.33333,-0.804351 c 0.91667,-0.369883 2.41667,-0.369883 3.33334,0 0.91666,0.369883 0.16666,0.672515 -1.66667,0.672515 -1.83333,0 -2.58333,-0.302632 -1.66667,-0.672515 z m -5,-1.783626 c 0,-0.733333 0.63541,-1.333333 1.41203,-1.333333 0.77661,0 1.0412,0.6 0.58797,1.333333 -0.45322,0.733333 -1.08863,1.333333 -1.41202,1.333333 -0.32339,0 -0.58798,-0.6 -0.58798,-1.333333 z m 7.33334,0.192939 c -6.5866,-1.508572 -2.08646,-2.681645 16.80338,-4.380216 13.05465,-1.173872 18.94005,-1.213736 21.86328,-0.14809 3.90325,1.422903 3.91776,1.46072 0.6,1.563437 -1.87,0.0579 -3.97,0.637374 -4.66666,1.287731 -1.63828,1.529373 -29.37508,2.873836 -34.6,1.677138 z m 9.55555,-1.081828 c -0.48889,-0.488889 -1.28889,-0.488889 -1.77778,0 -0.48888,0.488889 -0.0889,0.888889 0.88889,0.888889 0.97778,0 1.37778,-0.4 0.88889,-0.888889 z m 4.44445,-1.111111 c 0,-0.366667 -0.3,-0.666667 -0.66667,-0.666667 -0.36667,0 -0.66667,0.3 -0.66667,0.666667 0,0.366667 0.3,0.666667 0.66667,0.666667 0.36667,0 0.66667,-0.3 0.66667,-0.666667 z m 32,-1.333333 c 0,-0.366667 0.3,-0.666667 0.66666,-0.666667 0.36667,0 0.66667,0.3 0.66667,0.666667 0,0.366666 -0.3,0.666666 -0.66667,0.666666 -0.36666,0 -0.66666,-0.3 -0.66666,-0.666666 z m -65.58334,-8.244153 c 0.9625,-0.385161 2.1125,-0.337792 2.55556,0.105263 0.44306,0.443056 -0.34444,0.758188 -1.75,0.700293 -1.55326,-0.06398 -1.8692,-0.379921 -0.80556,-0.805556 z m 17.58334,-1.755848 c 0,-0.977778 0.4,-1.377778 0.88889,-0.888889 0.48888,0.488889 0.48888,1.288889 0,1.777778 -0.48889,0.488889 -0.88889,0.08889 -0.88889,-0.888889 z m -29.22222,-1.82312 c 0.30555,-0.269383 2.95555,-0.855229 5.88888,-1.301881 3.71707,-0.565989 4.5252,-0.445959 2.66667,0.396073 -2.55961,1.159665 -9.70113,1.915764 -8.55555,0.905808 z m 15.22222,-3.510213 c 3.66544,-1.575097 5.77062,-1.575097 3.33333,0 -1.1,0.710874 -2.9,1.259516 -4,1.219202 -1.31874,-0.04833 -1.09165,-0.463626 0.66667,-1.219202 z m 39.87858,-9.529797 c -0.87761,-1.4200023 0.82243,-1.9698883 7.26974,-2.3514233 3.53347,-0.209102 5.4985,0.167964 5.00835,0.961041 -0.96639,1.5636633 -11.43812,2.7494903 -12.27809,1.3903823 z m -3.21192,-0.470204 c 0,-0.366666 0.3,-0.666666 0.66667,-0.666666 0.36667,0 0.66667,0.3 0.66667,0.666666 0,0.366667 -0.3,0.666667 -0.66667,0.666667 -0.36667,0 -0.66667,-0.3 -0.66667,-0.666667 z m 4,-4.0000004 c 0,-0.366667 0.3,-0.666667 0.66667,-0.666667 0.36667,0 0.66667,0.3 0.66667,0.666667 0,0.366667 -0.3,0.6666671 -0.66667,0.6666671 -0.36667,0 -0.66667,-0.3000001 -0.66667,-0.6666671 z m -1.33333,-2.666667 c 0,-0.366666 0.3,-0.666666 0.66667,-0.666666 0.36666,0 0.66666,0.3 0.66666,0.666666 0,0.366667 -0.3,0.666667 -0.66666,0.666667 -0.36667,0 -0.66667,-0.3 -0.66667,-0.666667 z"
       id="path1" />
  </g>
</svg>
