<?xml version="1.0" encoding="UTF-8" standalone="no"?>
<svg
   viewBox="0 0 50 50"
   width="50px"
   height="50px"
   version="1.1"
   id="svg1"
   sodipodi:docname="pinterest.svg"
   inkscape:version="1.3.2 (1:1.3.2+202311252150+091e20ef0f)"
   xmlns:inkscape="http://www.inkscape.org/namespaces/inkscape"
   xmlns:sodipodi="http://sodipodi.sourceforge.net/DTD/sodipodi-0.dtd"
   xmlns="http://www.w3.org/2000/svg"
   xmlns:svg="http://www.w3.org/2000/svg">
  <defs
     id="defs1" />
  <sodipodi:namedview
     id="namedview1"
     pagecolor="#ffffff"
     bordercolor="#999999"
     borderopacity="1"
     inkscape:showpageshadow="2"
     inkscape:pageopacity="0"
     inkscape:pagecheckerboard="0"
     inkscape:deskcolor="#d1d1d1"
     inkscape:zoom="16.66"
     inkscape:cx="25"
     inkscape:cy="25"
     inkscape:window-width="1920"
     inkscape:window-height="1015"
     inkscape:window-x="0"
     inkscape:window-y="0"
     inkscape:window-maximized="1"
     inkscape:current-layer="svg1" />
  <path
     d="M 25 2 C 12.309295 2 2 12.309295 2 25 C 2 37.690705 12.309295 48 25 48 C 37.690705 48 48 37.690705 48 25 C 48 12.309295 37.690705 2 25 2 z M 25 4 C 36.609825 4 46 13.390175 46 25 C 46 36.609825 36.609825 46 25 46 C 22.876355 46 20.82771 45.682142 18.896484 45.097656 C 19.75673 43.659418 20.867347 41.60359 21.308594 39.90625 C 21.570728 38.899887 22.648438 34.794922 22.648438 34.794922 C 23.348841 36.132057 25.395277 37.263672 27.574219 37.263672 C 34.058123 37.263672 38.732422 31.300682 38.732422 23.890625 C 38.732422 16.78653 32.935409 11.472656 25.476562 11.472656 C 16.196831 11.472656 11.271484 17.700825 11.271484 24.482422 C 11.271484 27.636307 12.94892 31.562193 15.634766 32.8125 C 16.041611 33.001865 16.260073 32.919834 16.353516 32.525391 C 16.425459 32.226044 16.788267 30.766792 16.951172 30.087891 C 17.003269 29.871239 16.978043 29.68405 16.802734 29.470703 C 15.913793 28.392399 15.201172 26.4118 15.201172 24.564453 C 15.201172 19.822048 18.791452 15.232422 24.908203 15.232422 C 30.18976 15.232422 33.888672 18.832872 33.888672 23.980469 C 33.888672 29.796219 30.95207 33.826172 27.130859 33.826172 C 25.020554 33.826172 23.440361 32.080359 23.947266 29.939453 C 24.555054 27.38426 25.728516 24.626944 25.728516 22.78125 C 25.728516 21.130713 24.842754 19.753906 23.007812 19.753906 C 20.850369 19.753906 19.117188 21.984457 19.117188 24.974609 C 19.117187 26.877359 19.761719 28.166016 19.761719 28.166016 C 19.761719 28.166016 17.630543 37.176514 17.240234 38.853516 C 16.849091 40.52931 16.953851 42.786365 17.115234 44.466797 C 9.421139 41.352465 4 33.819328 4 25 C 4 13.390175 13.390175 4 25 4 z"
     id="path1"
     style="fill:#3c443f;fill-opacity:1" />
</svg>
